/* XPM */
static char *b1ed13b51be2468ac61824b6fb141f21FFzZB3LDVQXpKq9Z[] = {
/* columns rows colors chars-per-pixel */
"64 64 216 2 ",
"   c #000000",
".  c #1C0000",
"X  c #00001E",
"o  c #2C0000",
"O  c #310000",
"+  c #3C0000",
"@  c #2F0016",
"#  c #000025",
"$  c #00002D",
"%  c #05053A",
"&  c #191D3E",
"*  c #33102B",
"=  c #002A3D",
"-  c #272729",
";  c #3C3C3B",
":  c #460000",
">  c #4C0000",
",  c #560000",
"<  c #5A0000",
"1  c #421E1E",
"2  c #620000",
"3  c #6B0000",
"4  c #710000",
"5  c #7B0000",
"6  c #760D09",
"7  c #6B1B0C",
"8  c #781B00",
"9  c #7B281B",
"0  c #462422",
"q  c #4E2D38",
"w  c #51273C",
"e  c #583938",
"r  c #79352D",
"t  c #673737",
"y  c #7C433E",
"u  c #111140",
"i  c #2A2C4A",
"p  c #3E3E4B",
"a  c #373754",
"s  c #503E46",
"d  c #33434E",
"f  c #424144",
"g  c #41414F",
"h  c #4F4F4E",
"j  c #594346",
"k  c #4A4A55",
"l  c #484A56",
"z  c #4E5657",
"x  c #535556",
"c  c #75514F",
"v  c #645555",
"b  c #6A5458",
"n  c #494B64",
"m  c #4D5767",
"M  c #555564",
"N  c #5A5A63",
"B  c #5D5D6B",
"V  c #5D5D74",
"C  c #615965",
"Z  c #596573",
"A  c #5F6D78",
"S  c #62636A",
"D  c #7A6A6F",
"F  c #6A6A75",
"G  c #636978",
"H  c #6D6E7B",
"J  c #727273",
"K  c #72727C",
"L  c #7A757E",
"P  c #850000",
"I  c #8A0000",
"U  c #970000",
"Y  c #9E1700",
"T  c #A11E00",
"R  c #872300",
"E  c #992B00",
"W  c #8F301E",
"Q  c #9D3811",
"!  c #93351D",
"~  c #A22F00",
"^  c #A93701",
"/  c #B83800",
"(  c #BD3B00",
")  c #842623",
"_  c #882724",
"`  c #8B2923",
"'  c #8A3122",
"]  c #993C27",
"[  c #843931",
"{  c #BC440E",
"}  c #A5432F",
"|  c #AD452A",
" . c #B54A2B",
".. c #A84531",
"X. c #AE4A34",
"o. c #B54E37",
"O. c #BB5237",
"+. c #BC523C",
"@. c #D54B04",
"#. c #C4491A",
"$. c #E45000",
"%. c #EA5504",
"&. c #E4571F",
"*. c #C8522C",
"=. c #D3572F",
"-. c #C2553A",
";. c #C9583A",
":. c #D75D3A",
">. c #E45821",
",. c #EA5C26",
"<. c #E55D2E",
"1. c #E55F32",
"2. c #DD623F",
"3. c #E5633C",
"4. c #E96339",
"5. c #F1683D",
"6. c #9D5B50",
"7. c #BD604B",
"8. c #877675",
"9. c #AE776E",
"0. c #C55940",
"q. c #D15E41",
"w. c #D66244",
"e. c #DD6544",
"r. c #DC674A",
"t. c #DF684B",
"y. c #E26644",
"u. c #E56947",
"i. c #EA6B47",
"p. c #E66B4A",
"a. c #EB6D4B",
"s. c #F26C44",
"d. c #F06F4A",
"f. c #EE704E",
"g. c #F0714E",
"h. c #E7765B",
"j. c #EF7658",
"k. c #F27453",
"l. c #E77E67",
"z. c #E87E67",
"x. c #E9836D",
"c. c #767886",
"v. c #7B7B82",
"b. c #7A7B8B",
"n. c #898588",
"m. c #868895",
"M. c #8A8A92",
"N. c #888A9B",
"B. c #8C949F",
"V. c #949393",
"C. c #9D9594",
"Z. c #959A9E",
"A. c #9B9B9C",
"S. c #AA8783",
"D. c #A79392",
"F. c #A19E9D",
"G. c #8D8EA2",
"H. c #8E90A0",
"J. c #9594A1",
"K. c #9D9DA2",
"L. c #9598A8",
"P. c #9A9AAC",
"I. c #9DA1A3",
"U. c #9DA8AE",
"Y. c #9FA0B2",
"T. c #A2A2A5",
"R. c #AAA5A6",
"E. c #A3A4AB",
"W. c #ABABAD",
"Q. c #B3ADAE",
"!. c #BDABA9",
"~. c #A3A4B4",
"^. c #A7ADB1",
"/. c #ADACBC",
"(. c #B3B2B4",
"). c #B6B5B7",
"_. c #F29381",
"`. c #EDA89C",
"'. c #F2A99D",
"]. c #EFB6AD",
"[. c #F0B6AE",
"{. c #AFAFC2",
"}. c #B2B3C1",
"|. c #BBBBC2",
" X c #B5B5C8",
".X c #BCBCCC",
"XX c #BDC0CA",
"oX c #C4C4C7",
"OX c #CCC6C5",
"+X c #C6C6CA",
"@X c #CCCBCC",
"#X c #D2CECE",
"$X c #C3C3D2",
"%X c #CBCCD2",
"&X c #C9C9D9",
"*X c #D0CFD0",
"=X c #CFD1D2",
"-X c #D2D2D3",
";X c #D8D7D7",
":X c #D4D5D9",
">X c #D7D9D9",
",X c #DADADB",
"<X c #F4CBC6",
"1X c #E0DDDD",
"2X c #F8E0DD",
"3X c #DADAE5",
"4X c #DFE0E2",
"5X c #E4E3E4",
"6X c #E5E5EB",
"7X c #E7E8E9",
"8X c #EAEAEB",
"9X c #EAEAF3",
"0X c #F4F4F4",
"qX c #F8F7F7",
"wX c #F6F6F9",
"eX c #FFFFFF",
/* pixels */
"eXeXeXeXeXeXeXeXeXeXeXeXeXeXeXeXeXeXeXeXeXeXeXeXeXeXeXeXeXeXeXeXeXeXeXeXeXeXeXeXeXeXeXeXeXeXeXeXeXeXeXeXeXeXeXeXeXeXeXeXeXeXeXeX",
"eXeXeXeXeXeXeXeXeXeXeXeXeXeXeXeXeXeXeXeXeXeXeXeXeXeXeXeXeXeXeXeXeXeXeXeXeXeXeXeXeXeXeXeXeXeXeXeXeXeXeXeXeXeXeXeXeXeXeXeXeXeXeXeX",
"eXeXeXeXeXeXeXeXeXeXeXeXeXeXeXeXeXeXeXeXeXeXeXeXeXeXeXeXeXeXeXeXeXeXeXeXeXeXeXeXeXeXeXeXeXeXeXeXeXeXeXeXeXeXeXeXeXeXeXeXeXeXeXeX",
"eXeXeXeXeXeXeXeXeXeXeXeXeXeXeXeXeXeXeXeXeXeXeXeXeXeXeXeXeXeXeXeXeXeXeXeXeXeXeXeXeXeXeXeXeXeXeXeXeXeXeXeXeXeXeXeXeXeXeXeXeXeXeXeX",
"eXeXeXeXeXeXeXeXeXeXeXeXeXeXeXeXeXeXeXeXeXeXeXeXeXeXeXeXeXeXeXeXeXeXeXeXeXeXeXeXeXeXeXeXeXeXeXeXeXeXeXeXeXeXeXeXeXeXeXeXeXeXeXeX",
"eXeXeXeXeXeXeXeXeXeXeXeXeXeXeXeXeXeXeXeXeXeXeXeXeXeXeXeXeXeXeXeXeXeXeXeXeXeXeXeXeXeXeXeXeXeXeXeXeXeXeXeXeXeXeXeXeXeXeXeXeXeXeXeX",
"eXeXeXeXeXeXeXeXeXeXeXeXeXeXeXeXeXeXeXeXeXeXeXqXqX0X0X0X0X0X0X0X0X0X0X0X0X0X0XqXeXeXeXeXeXeXeXeXeXeXeXeXeXeXeXeXeXeXeXeXeXeXeXeX",
"eXeXeXeXeXeXeXeXeXeXeXeXeXeXeXeXeXeXeXeXeXeXeX0X5X;X#X@X#X-X-X-X-X-X-X#X@X-X;X5X0XeXeXeXeXeXeXeXeXeXeXeXeXeXeXeXeXeXeXeXeXeXeXeX",
"eXeXeXeXeXeXeXeXeXeXeXeXeXeXeXeXeXeXeXeXeXeXeX8X@XW.V.V.A.F.A.T.F.F.F.A.V.V.W.@X8XeXeXeXeXeXeXeXeXeXeXeXeXeXeXeXeXeXeXeXeXeXeXeX",
"eXeXeXeXeXeXeXeXeXeXeXeXeXeXeXeXeXeXeXeXeXeXeX1X(.8.q 1 j v v b v v v j 1 e L Q.1XqXeXeXeXeXeXeXeXeXeXeXeXeXeXeXeXeXeXeXeXeXeXeX",
"eXeXeXeXeXeXeXeXeXeXeXeXeXeXeXeXqXqX0XqXeXqX8XOXD.y + O : , , , , , , > O : t D.OX8XqXeXqX0XqXqXeXeXeXeXeXeXeXeXeXeXeXeXeXeXeXeX",
"eXeXeXeXeXeXeXeXeXeXeXeXeXeXeX0X5X,X#X-X:X:XOX!.9.! P P I I I I I I I P P I ! 9.!.OX:X>X-X#X,X5X0XeXeXeXeXeXeXeXeXeXeXeXeXeXeXeX",
"eXeXeXeXeXeXeXeXeXeXeXeXeXeXeX8X#XQ.C.V.A.T.F.S.9.O./ ( ( { { { #.{ { ( ( ( +.9.S.F.T.A.C.C.Q.#X7XeXeXeXeXeXeXeXeXeXeXeXeXeXeXeX",
"eXeXeXeXeXeXeXeXeXeXeXeXeXeXeX1XQ.8.e 0 f x c 6.7.:.e.y.y.e.e.e.2.e.e.y.y.y.w.7.6.c x f 0 e 8.Q.1XeXeXeXeXeXeXeXeXeXeXeXeXeXeXeX",
"eXeXeXeXeXeXeXeXeXeXeXeXeXqX7XOXD.t       : 4 ~ *.y.g.g.g.a.f.p.a.a.a.a.g.g.u.*.^ 4 +       t D.OX7XeXeXeXeXeXeXeXeXeXeXeXeXeXeX",
"eXeXeXeXeXeXeXeXeXeXeX0X8X1XOXR.8.< + : 2 5 U / @.<.5.s.a.a.f.f.a.a.g.k.k.g.i.=.( U 5 2 : + < 8.R.OX1X7X0XeXeXeXeXeXeXeXeXeXeXeX",
"eXeXeXeXeXeXeXeXeXeXqX7X#X!.C.8.c 7 4 P T { { @.@.%.%.,.5.i.f.f.f.a.a.f.f.f.i.w.=.#./ Y P 4 7 c 8.D.Q.#X5XqXeXeXeXeXeXeXeXeXeXeX",
"eXeXeXeXeXeXeXeXeXeX0X,XQ.8.t 2 7 9 ] | -.w.e.3.<.&.&.<.3.i.p.u.p.p.p.p.p.p.u.p.p.t.w.-.| ! r 7 2 t 8.Q.,X0XeXeXeXeXeXeXeXeXeXeX",
"eXeXeXeXeXeXeXeXeXeX0X#XA.e   + 4 ! X.-.w.p.f.j.x.x.x.z.h.t.u.u.p.p.p.p.p.p.p.f.f.f.p.r.-.X.! 4 +   e D.#X0XeXeXeXeXeXeXeXeXeXeX",
"eXeXeXeXeXeXeXeXeXeXqX#XC.0   , I | -.q.1.i.j._.'.[.[.'._.h.y.4.y.p.p.p.p.p.p.a.a.f.p.p.w.0.| I >   0 C.-XqXeXeXeXeXeXeXeXeXeXeX",
"eXeXeXeXeXeXeXeXeXeXeX;XT.j o 3 T -.w.1.&.1.x.'.<X2X2X<X`.x.<.&.1.p.p.p.p.p.p.p.a.a.p.p.t.w.;.T 3 o j F.;XeXeXeXeXeXeXeXeXeXeXeX",
"eXeXeXeXeXeXeXeXeXeXqX;XT.x > P / 2.u.4.$.>.x.].2XqXqX2X].x.>.$.1.p.p.p.p.p.p.p.p.p.p.p.a.p.2.^ P > v T.;XqXeXeXeXeXeXeXeXeXeXeX",
"eXeXeXeXeXeXeXeXeXeX8XOXC.b 2 U { p.f.4.%.>.x.].2XqXqX2X].x.>.$.1.p.p.p.p.p.p.p.p.p.p.f.g.f.y.#.U 2 v C.OX8XqXeXeXeXeXeXeXeXeXeX",
"eXeXeXeXeXeXeX0X8X4XOXQ.n.c 5 T *.p.f.5.,.<.l.`.<X2X2X<X`.l.<.&.3.u.p.p.p.p.p.p.p.p.p.f.g.f.y.*.T 5 c n.Q.@X5X8X0XeXeXeXeXeXeXeX",
"eXeXeXeXeXeXqX8X-X).I.n.8.r R / ;.y.f.i.4.3.h._.`.].].`._.h.3.3.u.u.p.p.p.p.p.p.p.p.p.a.f.f.y.;./ R r 8.n.I.).=X6XqXeXeXeXeXeXeX",
"eXeXeXeXeXeX0X,X).m.C s t [ ]  .;.t.a.a.p.p.p.h.x.x.x.l.h.p.p.y.u.u.p.p.p.p.p.p.p.p.p.a.f.p.t.;. .] [ t j B m.).,X0XeXeXeXeXeXeX",
"eXeXeXeXeXeX0X-XU.M   o 2 ' ..O.:.t.a.f.p.p.u.3.1.&.&.1.3.p.p.p.p.p.p.p.p.p.p.p.p.p.p.p.a.p.t.w.O.} ' 2 o   N U.-X0XeXeXeXeXeXeX",
"eXeXeXeXeXeX0X=XZ.d     2 ' ..O.q.t.a.f.f.p.p.4.&.$.$.&.3.p.p.p.p.p.p.a.p.p.p.p.p.p.p.a.f.a.y.w.+...' 2     d Z.=X0XeXeXeXeXeXeX",
"eXeXeXeXeXeX0X=XK.l     2 ' ..-.w.p.f.f.p.p.u.3.3.1.4.3.3.u.p.p.p.p.p.p.p.p.p.p.p.p.p.a.f.f.p.w.-...' 2     l Z.=X0XeXeXeXeXeXeX",
"eXeXeXeXeXeX0X-XZ.z   . 2 ! ..O.q.p.f.f.f.p.p.p.p.y.p.u.p.p.p.p.p.p.p.p.p.a.p.p.p.p.p.a.f.f.p.w.-...' 2 .   z I.-X0XeXeXeXeXeXeX",
"eXeXeXeXeXeX0X-XI.z     , 9 ] o.;.r.t.p.p.p.p.p.p.p.p.u.p.y.p.u.p.p.p.p.p.p.p.p.p.p.p.p.p.t.w.;.o.] 9 ,     x I.-X0XeXeXeXeXeXeX",
"eXeXeXeXeXeX0X-XI.N     + 2 R Q  .;.w.e.u.p.f.a.a.p.a.a.a.a.a.a.a.i.a.a.u.a.a.a.a.f.p.y.e.w.;. .Q R 2 +     N I.-X0XeXeXeXeXeXeX",
"eXeXeXeXeXeX0X-XE.F       o , 5 E | -.q.y.u.d.d.d.i.a.a.i.i.a.f.a.a.a.i.a.d.i.d.d.d.a.e.:.O.| E 5 , O       F E.:X0XeXeXeXeXeXeX",
"eXeXeXeXeXeX0X;XW.H $       o , 8 ! ..0.w.u.d.d.i.a.a.a.i.a.a.p.a.a.i.i.a.i.a.d.g.f.u.2.-.X.W 8 , o       $ F W.,X0XeXeXeXeXeXeX",
"eXeXeXeXeXeX0X:X^.J & # = d s q t r ] o.0.w.r.u.p.t.r.r.t.t.r.r.r.r.r.r.r.r.r.p.p.t.r.0.X.] r t e f d = # & H W.:X0XeXeXeXeXeXeX",
"eXeXeXeXeXeX0X:XT.B % i Z c.b.D b t 9 ` } o.+.-.+.O.+.+.O.O.+.+.+.+.+.+.+.+.O.+.+.-.o...! 9 t C K b.c.Z i % B E.:X0XeXeXeXeXeXeX",
"eXeXeXeXeXeX0X%XA.l # n N.~.~.Z.L j < 2 6 ) _ _ ` ` _ _ ) ) _ _ _ _ _ _ _ _ _ _ ` ` ) 6 2 , s K J.~.~.N.n # l K.-X0XeXeXeXeXeXeX",
"eXeXeXeXeXeX0X-XZ.l % c.Y..X$X/.m.C * @ * w s w w w w w w w w w w w w w w w w w w w w * @ * C m./.$X.XY.G u l A.%X0XeXeXeXeXeXeX",
"eXeXeXeXeXeX0X,X(.v.F m./..X.X{.G.H m m Z A A A A A A A A A A A A A A A A A A A A A A Z m m c.N./..X$X/.N.F b.(.;X0XeXeXeXeXeXeX",
"eXeXeXeXeXeXwX5X@X(.E.~./.{.{.~.L.G.N.H.I.U.^.^.U.U.U.U.U.U.U.U.U.U.U.U.U.U.U.~.^.U.U.L.B.N.G.L.~./.{./.E.E.(.@X5XqXeXeXeXeXeXeX",
"eXeXeXeXeXeXeX0X7X4X%X|.E.J.N.G.L.~.{.XX%X:X,X>X>X:X%X:X:X:X:X:X:X:X:X:X:X=X:X>X,X4X:X%X$X}.~.P.G.N.Z.~.|.@X4X7X0XeXeXeXeXeXeXeX",
"eXeXeXeXeXeXeXeXeXqX8X#XT.K B c.P. X&X3X9X0XqXeXqX0XqX0X0X0X0X0X0X0X0X0X0X0XqXwXqXqX0X7X3X&X XP.c.B K T.@X7XeXeXeXeXeXeXeXeXeXeX",
"eXeXeXeXeXeXeXeXeXeXqX>XT.N i G L. X&X6X0XeXeXeXeXeXeXeXeXeXeXeXeXeXeXeXeXeXeXeXeXeXeX9X6X&X XL.V i N F.;XeXeXeXeXeXeXeXeXeXeXeX",
"eXeXeXeXeXeXeXeXeXeXeX>XA.l X n G.{.&X3X6X9XeXeXeXeXeXeXeXeXeXeXeXeXeXeXeXeXeXeXeXeX0X9X3X$X{.m.n X l A.:XeXeXeXeXeXeXeXeXeXeXeX",
"eXeXeXeXeXeXeXeXeXeXqX-XJ.p   i b.K.}.$X:X3X9XwXeXeXeXeXeXeXeXeXeXeXeXeXeXeXeXeXwX9X3X3XXX XK.c.i   s J.-XqXeXeXeXeXeXeXeXeXeXeX",
"eXeXeXeXeXeXeXeXeXeX0X-XK.x # i F M.E./..X&X3X9XwXeXeXeXeXeXeXeXeXeXeXeXeXeXeXwX9X3X&X.X/.Y.M.F i # M K.-X0XeXeXeXeXeXeXeXeXeXeX",
"eXeXeXeXeXeXeXeXeXeXwX,X).n.B M F L m.H.Y.{.XX3X6X0XqXeXqXqX0XwX0XwXwXwXqXqX0X8X:XXX XY.J.m.L F N B n./.,X0XeXeXeXeXeXeXeXeXeXeX",
"eXeXeXeXeXeXeXeXeXeXwX6X-X).K.n.J B M c.b.G.~. X%X3X5X5X5X5X5X5X4X4X5X5X6X5X,X%X X~.G.b.F B S J n.I.).-X7XqXeXeXeXeXeXeXeXeXeXeX",
"eXeXeXeXeXeXeXeXeXeXeX0X8X3X@XW.v.f   X a Z b.J.^.|.+X@X+XoXoXoXoXoXoX+X+X+X|.^.J.b.V a X   f v.^.@X4X8X0XeXeXeXeXeXeXeXeXeXeXeX",
"eXeXeXeXeXeXeXeXeXeXeXeXeXeX8XoXV.;       i M K M.K.E.E.E.T.K.K.P.T.K.E.E.E.K.M.c.M i       ; V.oX6XeXeXeXeXeXeXeXeXeXeXeXeXeXeX",
"eXeXeXeXeXeXeXeXeXeXeXeXeXeXqX,XW.J - - l B F F K c.v.v.v.v.v.c.v.v.b.v.v.v.c.K F F S h - - J Q.,XqXeXeXeXeXeXeXeXeXeXeXeXeXeXeX",
"eXeXeXeXeXeXeXeXeXeXeXeXeXeXeX8X@XW.V.V.F.R.A.M.K m s p g k l z k l l d s g x J M.A.E.I.V.V.W.@X8XeXeXeXeXeXeXeXeXeXeXeXeXeXeXeX",
"eXeXeXeXeXeXeXeXeXeXeXeXeXeXeX0X5X:X#X-X:X>X@XW.v.p                         d n.W.@X>X>X-X@X;X5X0XeXeXeXeXeXeXeXeXeXeXeXeXeXeXeX",
"eXeXeXeXeXeXeXeXeXeXeXeXeXeXeXqXqX0X0XqXqXeX8XOXV.f                         f C.OX8XqXeX0X0X0XqXqXeXeXeXeXeXeXeXeXeXeXeXeXeXeXeX",
"eXeXeXeXeXeXeXeXeXeXeXeXeXeXeXeXeXeXeXeXeXeXeX;XW.J -   ; h h h h h h ;   - J Q.,XqXeXeXeXeXeXeXeXeXeXeXeXeXeXeXeXeXeXeXeXeXeXeX",
"eXeXeXeXeXeXeXeXeXeXeXeXeXeXeXeXeXeXeXeXeXeXeX7X@XW.V.n.V.F.A.A.A.A.A.V.M.V.W.@X7XeXeXeXeXeXeXeXeXeXeXeXeXeXeXeXeXeXeXeXeXeXeXeX",
"eXeXeXeXeXeXeXeXeXeXeXeXeXeXeXeXeXeXeXeXeXeXeX0X5X:X@X@X@X#X-X-X#X-X#X*X@X@X-X5X0XeXeXeXeXeXeXeXeXeXeXeXeXeXeXeXeXeXeXeXeXeXeXeX",
"eXeXeXeXeXeXeXeXeXeXeXeXeXeXeXeXeXeXeXeXeXeXeXqXqX0X0X0X0X0X0X0X0X0X0X0X0X0XqXqXqXeXeXeXeXeXeXeXeXeXeXeXeXeXeXeXeXeXeXeXeXeXeXeX",
"eXeXeXeXeXeXeXeXeXeXeXeXeXeXeXeXeXeXeXeXeXeXeXeXeXeXeXeXeXeXeXeXeXeXeXeXeXeXeXeXeXeXeXeXeXeXeXeXeXeXeXeXeXeXeXeXeXeXeXeXeXeXeXeX",
"eXeXeXeXeXeXeXeXeXeXeXeXeXeXeXeXeXeXeXeXeXeXeXeXeXeXeXeXeXeXeXeXeXeXeXeXeXeXeXeXeXeXeXeXeXeXeXeXeXeXeXeXeXeXeXeXeXeXeXeXeXeXeXeX",
"eXeXeXeXeXeXeXeXeXeXeXeXeXeXeXeXeXeXeXeXeXeXeXeXeXeXeXeXeXeXeXeXeXeXeXeXeXeXeXeXeXeXeXeXeXeXeXeXeXeXeXeXeXeXeXeXeXeXeXeXeXeXeXeX",
"eXeXeXeXeXeXeXeXeXeXeXeXeXeXeXeXeXeXeXeXeXeXeXeXeXeXeXeXeXeXeXeXeXeXeXeXeXeXeXeXeXeXeXeXeXeXeXeXeXeXeXeXeXeXeXeXeXeXeXeXeXeXeXeX",
"eXeXeXeXeXeXeXeXeXeXeXeXeXeXeXeXeXeXeXeXeXeXeXeXeXeXeXeXeXeXeXeXeXeXeXeXeXeXeXeXeXeXeXeXeXeXeXeXeXeXeXeXeXeXeXeXeXeXeXeXeXeXeXeX",
"eXeXeXeXeXeXeXeXeXeXeXeXeXeXeXeXeXeXeXeXeXeXeXeXeXeXeXeXeXeXeXeXeXeXeXeXeXeXeXeXeXeXeXeXeXeXeXeXeXeXeXeXeXeXeXeXeXeXeXeXeXeXeXeX"
};
