/* XPM */
static char *_b570fa0459642d4968116711338ef3ddlOlDn8KtrIyoDuC[] = {
/* columns rows colors chars-per-pixel */
"64 64 144 2 ",
"   c #000000",
".  c #0B000B",
"X  c #0F0F0F",
"o  c #140014",
"O  c #1A001A",
"+  c #161316",
"@  c #1D131D",
"#  c #1B1B1B",
"$  c #1D201D",
"%  c #230223",
"&  c #241124",
"*  c #2F192F",
"=  c #320032",
"-  c #360E36",
";  c #3E173E",
":  c #252525",
">  c #262926",
",  c #292729",
"<  c #2A2B2A",
"1  c #2D302D",
"2  c #352535",
"3  c #362936",
"4  c #3A2E3A",
"5  c #363536",
"6  c #373D37",
"7  c #3C333C",
"8  c #3C3D3C",
"9  c #3C423C",
"0  c #472F47",
"q  c #443544",
"w  c #413B41",
"e  c #4E3B4E",
"r  c #503C50",
"t  c #434443",
"y  c #464B46",
"u  c #4B454B",
"i  c #4A4E4A",
"p  c #475047",
"a  c #4B514B",
"s  c #4F594F",
"d  c #534653",
"f  c #554C55",
"g  c #584658",
"h  c #5B4C5B",
"j  c #525252",
"k  c #535D53",
"l  c #5D565D",
"z  c #5E5A5E",
"x  c #556155",
"c  c #5C675C",
"v  c #5D685D",
"b  c #615661",
"n  c #645C64",
"m  c #646464",
"M  c #626A62",
"N  c #6A656A",
"B  c #6B6E6B",
"V  c #6E746E",
"C  c #6E7A6E",
"Z  c #726D72",
"A  c #786E78",
"S  c #757475",
"D  c #767B76",
"F  c #7A757A",
"G  c #797B79",
"H  c #728272",
"J  c #758875",
"K  c #7D847D",
"L  c #7C8C7C",
"P  c #847B84",
"I  c #808780",
"U  c #828B82",
"Y  c #8A848A",
"T  c #8E8B8E",
"R  c #849584",
"E  c #879B87",
"W  c #8B948B",
"Q  c #8A9D8A",
"!  c #908D90",
"~  c #949394",
"^  c #969996",
"/  c #9A969A",
"(  c #999999",
")  c #8DA28D",
"_  c #91A691",
"`  c #97AC97",
"'  c #9BA49B",
"]  c #9AAD9A",
"[  c #9DB19D",
"{  c #A29EA2",
"}  c #A5A3A5",
"|  c #A3ADA3",
" . c #A9A6A9",
".. c #ABABAB",
"X. c #A1B4A1",
"o. c #A6B9A6",
"O. c #ADB3AD",
"+. c #A9BDA9",
"@. c #B1B3B1",
"#. c #B7BBB7",
"$. c #BABDBA",
"%. c #ADC3AD",
"&. c #B4C4B4",
"*. c #B4CCB4",
"=. c #B5CFB5",
"-. c #B6CFB6",
";. c #BCC6BC",
":. c #BDCBBD",
">. c #B6D1B6",
",. c #B8D1B8",
"<. c #BAD4BA",
"1. c #BCD4BC",
"2. c #BEDABE",
"3. c #BFDBBF",
"4. c #BFDCBF",
"5. c #C2CFC2",
"6. c #C4D4C4",
"7. c #C0DAC0",
"8. c #C0DDC0",
"9. c #C3DEC3",
"0. c #C9D8C9",
"q. c #C3E0C3",
"w. c #C7E4C7",
"e. c #C9E4C9",
"r. c #CAE7CA",
"t. c #CDEBCD",
"y. c #CFEDCF",
"u. c #D1EFD1",
"i. c #D3F3D3",
"p. c #D4F4D4",
"a. c #D5F5D5",
"s. c #D8F5D8",
"d. c #D9F9D9",
"f. c #DAFADA",
"g. c #DAFBDA",
"h. c #DBFBDB",
"j. c #DBFCDB",
"k. c #DDFEDD",
"l. c #E0FFE0",
"z. c #E2FFE2",
"x. c #E4FFE4",
"c. c #E5FFE5",
"v. c #E9FFE9",
"b. c #EBFFEB",
/* pixels */
"k.k.k.z.z.x.x.x.x.x.x.x.x.x.x.x.z.x.x.x.x.x.x.x.x.x.x.x.x.x.x.x.x.x.x.x.x.x.x.x.z.x.x.x.x.x.x.x.x.x.x.x.z.x.x.x.x.x.z.z.z.z.k.k.",
"k.k.k.z.z.z.z.x.x.x.x.z.x.x.x.x.z.z.x.x.x.x.x.z.x.x.x.x.x.z.x.x.x.x.x.z.x.x.x.x.z.z.x.x.x.x.x.z.x.x.x.x.z.z.x.x.x.x.z.z.k.k.k.k.",
"z.k.k.j.h.a.a.a.a.a.p.a.a.a.p.p.p.p.p.a.a.a.a.a.a.a.p.p.a.i.a.a.a.a.p.a.a.a.a.p.p.p.p.p.a.a.p.a.a.a.a.p.i.a.p.p.a.s.s.h.k.k.k.z.",
"z.x.k.a.r.9.*.*.*.>.*.>.>.*.>.*.>.*.>.*.*.>.*.>.>.*.>.*.>.>.*.*.*.>.*.>.*.*.>.*.>.*.>.*.*.>.*.>.>.*.>.*.*.>.*.*.*.,.7.r.a.k.z.x.",
"v.v.k.t.,.X.Q W R E R R R R R R E E R R R R R R R R E R R R E E R R R E R R R R E R R R R E R R R R E R R R E E R ^ X.*.t.k.v.v.",
"v.x.h.9.+.U m f f y y y y i y y y y y i y a y y i i y y i i y y y i i y a i i y y y i i y y y y y i y i t y a f d m U o.9.h.v.v.",
"k.h.u.1.X.U m j j a y y i i y a i i a a a y y a i i y i y i i i y i i a y y i i i a a a y a a a y i a y y y a j j m U X.<.y.h.k.",
"9.9.1.*.o.] ^ Q Q Q Q Q Q Q Q Q Q Q Q Q Q E ) E Q Q Q Q Q Q Q Q Q Q Q Q Q Q Q Q Q Q Q Q Q Q E E Q Q Q Q Q Q Q Q Q _ ] o.*.1.9.9.",
"X.X.o.+.*.,.1.3.7.3.3.3.3.3.3.3.4.3.3.3.3.<.3.2.2.2.2.2.2.2.2.3.7.3.3.3.3.3.3.3.2.3.3.3.3.2.3.2.3.3.3.3.3.3.3.3.7.1.,.*.+.X.X.X.",
"S D W o.1.y.j.k.k.h.a.h.h.h.h.h.j.j.h.h.h.j.h.j.d.j.j.j.d.h.h.h.h.h.h.h.h.h.h.h.a.j.h.h.h.j.d.h.d.d.h.h.h.h.h.j.k.h.y.1.o.W D S ",
"; 0 S ] 9.h.x.v.z.h.h.h.j.j.a.h.j.j.j.j.h.j.j.j.j.d.j.j.j.d.j.h.h.h.h.h.h.h.h.h.j.j.d.h.j.j.j.j.h.d.j.h.h.d.j.z.v.v.h.9.[ S 0 ; ",
". % M ] 9.k.z.z.i.w.9.3.4.4.4.3.4.4.4.4.4.4.4.4.8.4.8.4.4.4.4.9.4.3.3.9.3.3.9.3.4.4.4.4.4.4.4.9.4.4.3.3.3.3.w.i.z.x.k.9.] m % . ",
"  O M ] 9.j.z.i.<.o._ ) ) _ _ _ _ ) _ _ _ _ _ _ _ ) ) _ _ _ _ ) ) _ _ _ _ _ _ _ ) _ _ _ ) _ ) _ ) _ _ _ ) _ o.>.i.z.j.9.] M O   ",
"  O M ] 9.h.j.w.o.H a 9 a x k k k k k k k k k k x x k x k x x x k x x k x x k k k x k k k x k k x s x p 9 a H o.w.j.h.9.] M O   ",
"    c ` q.h.j.4.) a       * 3 3 3 3 3 7 3 3 3 3 3 3 3 3 3 3 3 2 2 3 2 * 2 3 2 2 2 3 2 2 3 3 3 7 3 2 <       a ) 4.h.h.9.` c     ",
"    c ` 9.h.h.9.) 9     = d l b n n n n n n n l h f f l b n b b z f h h f f h h f f h b b n n b b b d =     t ) 3.h.h.9.` c     ",
"    c ` q.h.h.4.) s   = b F P ! ! ! ! ! ~ ! T Y P P P Y Y ! T T P P P P P P P P P P P Y T ! ! T T P P b =   a ) 9.j.j.q.` c     ",
"    v ] 9.j.j.4._ x * f P / {  . . ... ..... . .} { } }  ... . . .{ { { { { { { { { {  . . ..... .{ / P d * x _ 4.j.j.4.` v     ",
"    c ` 9.h.h.3._ k 4 N ~ O.;.#.@...........O.O.@.#.#.@.@.....O.@.#.#.#.#.#.#.#.#.#.@.@.......@.$.$.@.~ N 4 k _ 4.j.j.9.` c     ",
"    c ` 9.j.j.4.) j 8 D | :.6.5.@.{ / / ( (  .@.;.6.6.;... .} O.#.5.0.0.0.0.0.0.0.0.5.&.O. .} @.:.0.:. .D 8 s _ 4.j.h.9.` c     ",
"    c ` q.h.j.3.) a y K &.e.t.6.X.Y A A F P ^ +.6.t.r.5.X.T T | ;.e.s.s.p.p.s.p.a.u.0.:.| T T X.6.y.r.%.K y a ) 3.h.h.q.] v     ",
"    v ` 9.j.d.2.) a i E ,.a.a.9.X.G h r g N I o.w.a.s.7.] K D ' ,.u.z.z.k.k.z.z.z.z.u.>.' G G [ 7.s.a.,.E i a Q 3.h.j.9.` v     ",
"    c ` 9.h.j.2.Q y a Q 7.k.z.t.&.R B f d j G X.r.k.j.w.] B B _ 7.s.x.x.k.h.h.k.x.z.h.3.` B B ] w.k.k.4.Q a y Q 3.h.h.q.` c     ",
"    c ` 4.j.j.2.Q y a Q 3.h.z.a.7.+._ G z d V [ w.k.k.w.' m m _ 7.s.x.h.u.9.7.t.k.z.h.3._ m m ' 9.z.k.9.Q a i Q 3.h.j.q.` c     ",
"    v ` 9.j.h.2.E a y E 1.h.z.k.a.9.*.' D d m ` 9.k.h.9._ b z ^ 7.h.k.u.*.X.] >.t.k.h.3.^ z b _ 9.j.h.3.Q a y Q 3.d.j.9.` c     ",
"    v ` q.j.j.2.E a y E ,.a.z.z.z.h.y.*.Q m N ' 9.h.h.9.` N m ` 7.h.h.9.] G G X.w.k.h.7.` M m ` 9.h.h.3.Q i a Q 3.h.j.q.` c     ",
"    v ] 4.j.d.3.Q y y R *.a.x.v.v.v.k.9.X.U U o.w.k.h.w.X.U U o.w.h.h.w.[ G K ] 9.h.h.w.X.U U o.r.h.h.3.Q i a Q 2.h.h.4.` v     ",
"    v ` q.d.h.2.Q a y E >.s.v.v.v.v.z.u.,.+.o.-.u.k.k.u.,.+.+.-.u.z.k.y.>.X.] *.u.k.k.u.1.+.+.1.i.z.k.<.Q a i Q 2.d.h.9.` v     ",
"    c ` q.j.h.3.Q y a E <.h.v.v.v.v.z.k.u.r.w.u.h.z.z.h.u.r.r.u.h.z.z.h.t.w.9.t.h.z.z.k.u.r.w.p.z.z.k.3.Q a y Q 3.h.h.q.` v     ",
"    v ] q.h.d.3.Q a a Q >.h.v.v.v.x.z.z.k.h.h.h.z.z.z.z.h.h.h.k.z.z.z.z.k.h.h.k.z.z.z.z.k.h.h.z.z.v.h.,.Q y y Q 3.h.h.9.` v     ",
"    v ` 9.h.h.3.Q a y L %.y.j.j.h.a.s.s.h.h.h.h.a.p.a.h.h.h.h.h.p.p.s.h.s.h.h.h.s.a.a.s.h.h.h.z.k.h.t.%.L y a E 3.h.h.q.` c     ",
"    c ` q.h.h.4._ j 8 C [ >.q.w.7.7.9.9.9.w.w.w.9.3.7.9.w.w.w.7.9.9.7.7.w.w.w.w.9.7.9.9.7.w.w.w.w.w.>.[ C 8 s ) 3.h.j.q.` c     ",
"    v ` 9.h.j.4._ k 2 k U ] X.o.X.X.X.X.X.o.o.o.X.X.X.X.X.o.o.o.X.[ [ X.o.o.o.X.X.X.[ X.o.o.o.o.+.o.' L k 3 x _ 9.h.j.9.` v     ",
"    v ` 9.j.h.9.` c O 5 m G K U K K K K K K K K K K K K K K K K K K K K K K K K K K K K K K K K I K H m 7 O x ` 9.h.j.q.` v     ",
"    v ` q.h.j.q.` c o O w l b z l l l l z l l l l l l l l l l l l l l l l l z l l l l l l l l z z l l q O o c ` q.j.j.q.` c     ",
"    v ` q.j.j.q.` c .   - q e r e e e e e e e e e e e e e e e e e e e e e e e e e r e e e e e e r e e -   . c ` q.j.j.q.] v     ",
"    v [ w.k.k.w.[ c     - q e r r e e e e e e e e e e e e e e e e e e e e e e e e e e e e e e e r e q -   . v ] w.k.k.w.[ v     ",
"    c [ w.k.k.w.` c . O q l b l l l z l l l l l l l l l l l l l l l l l l l l l l l l l l l l l z b l q O . c ] q.k.k.w.` v     ",
"  . c _ 7.s.s.1._ x & 7 m D K U I K K K K K K K K K K K K K K K K K K K K K K K K K K K K K K K I U G m 7 & c _ 3.a.s.9.` c .   ",
"  o c Q &.w.t.&.E j 6 v E X.+.+.+.o.o.o.o.+.o.o.o.o.o.o.o.o.o.o.o.+.o.o.o.+.o.o.o.o.+.o.o.o.o.+.+.+.[ E c 5 a E &.r.0.*.Q x o   ",
"  @ k U O.:.:.X.D y y J o.7.t.y.r.w.w.r.w.r.w.w.w.w.r.w.w.w.r.w.e.r.w.w.w.r.w.w.w.w.w.w.w.r.w.r.y.t.4.[ J y t D X.:.5.O.U k @ . ",
"+ : j G ' @.@./ N 7 k E >.i.z.z.z.k.h.h.h.h.h.h.h.h.h.j.h.h.h.h.h.h.h.h.j.j.h.j.h.k.z.h.j.h.j.z.z.z.i.>.Q k 4 B ( @.@.( G j $ + ",
"# > i S !  .} ! b 3 k E *.y.k.z.k.h.h.a.h.h.h.h.a.h.h.h.h.h.d.h.h.h.h.h.h.h.h.h.h.h.h.h.h.d.h.k.k.z.y.>.E k 3 b T  .} / D f : # ",
"# , f S !  .{ ! N 7 y J [ >.9.q.7.3.3.3.3.3.,.3.3.3.3.3.3.3.,.3.3.3.1.3.<.1.3.3.,.3.4.,.3.<.4.9.q.9.>.[ J a q n T } { ~ S i > $ ",
"# > i D /  . .~ Z u 6 x C E Q ) Q Q Q Q E Q Q Q Q Q Q Q Q Q Q Q E E Q Q Q Q Q Q Q Q Q Q Q E Q Q ) ) E C k 8 y Z ~  . .^ S f : # ",
"# : d D / ..../ F i < > 6 i a a a a y a y a y y a y y a y a a y a y y a y a a y y a a a y a a a a y y 9 > < i F ^ .. ./ F i : # ",
"# : f D / ....^ D i > > 8 y a a a y y a a y a a y a a y a a y a y a y a a a y a a y a y a y a y a y y 9 > : i D / ....^ G i : # ",
"# : a F ^ .. .^ S u 6 k H E Q ) ) Q Q Q Q Q Q Q Q Q Q Q Q Q Q E Q Q Q Q Q Q Q Q Q Q Q Q Q Q Q ) ) ) R H k 6 u Z ^ ....( F a : # ",
"# : i F ^ ....~ N w p J [ >.4.q.3.3.3.3.3.<.3.,.3.3.2.2.3.,.4.3.3.3.,.3.3.3.,.3.3.3.<.3.,.3.3.7.w.9.*.[ J y 8 N ~ ....( F f : # ",
"# : i G / ....! n 4 s Q >.y.k.k.k.h.s.h.d.h.h.h.h.d.d.d.h.h.h.h.h.h.h.h.h.h.h.h.h.h.h.h.h.h.h.k.z.k.u.*.E k 4 n ! ....( D i : # ",
"+ > f D / ....! n 4 k Q *.i.z.x.z.h.k.h.h.j.h.h.h.j.h.j.h.h.h.j.h.h.h.h.h.h.h.h.h.h.h.k.j.k.h.z.z.k.p.>.Q k 4 n ~ ....( D f : + ",
"X & i G ( @...~ N 7 a J o.7.t.y.t.w.w.r.w.w.r.w.r.w.w.w.w.w.r.w.w.r.w.w.w.r.w.w.w.w.w.w.w.w.w.t.y.t.4.o.J a 4 N / ....( G a $ X ",
"  + i F { @.@./ Z w 9 M E [ %.+.+.o.o.o.o.o.o.o.o.o.o.o.o.o.o.+.o.o.o.o.+.o.o.o.o.o.o.o.o.+.o.+.+.+.X.E M 6 w Z ( @.@.( G i +   ",
"  $ i F ( ..@.( D i < i M G K U I K K K K K K K K K K K K K K K K K K K K K K K K K K K K K K K U U K M y 1 y D ( ..O.( G i # . ",
"< 3 a D ~  .} ~ S i 5 7 u l b z l l l l l l l l l l l l l l l l l l l l l l l l l l l l l l l l l l l u 7 5 f S ~ }  .~ D f < < ",
"5 7 i N F Y U F N u 7 7 q e e r r e e e r e e e e e e e e e e e e e e e e e e e e e e e e e e e e e e q 7 7 u m G Y Y F n i 7 7 ",
"q q e d f b b j d e q q e e e e e e e e e e e e e e e e e e e e e e e e e e e e e e e e e e e e e e e e q q e d l l b f f e q q ",
"l l j u q 3 4 q u f l l l l z l l l l l l l l l l l l l l l l l l l l l l l l l l l l l l l l l l l l l l l j u q 2 3 w u f l l ",
"U K K C M k k M C K U U K K K K K K K K K K K K K K K K K K K K K K K K K K K K K K K K K K K K K K K K I I K C m x k M V K I I ",
"X.o.[ ' _ ) ) _ ' [ X.X.X.X.[ X.[ X.[ X.X.X.[ X.X.[ X.X.[ X.[ X.[ X.[ X.[ X.X.[ [ X.[ X.X.X.[ X.[ X.X.X.X.o.X.' ) ) ) ) ` X.X.o.",
"7.9.7.1.-.1.>.<.3.7.7.9.3.7.7.3.7.7.7.9.3.9.7.7.3.7.7.7.7.7.7.9.3.9.7.7.7.7.7.7.7.7.7.9.3.9.7.7.7.7.7.7.9.7.7.3.<.<.>.<.<.7.9.7.",
"a.s.a.a.a.p.a.a.p.a.a.a.p.s.a.a.a.a.a.a.a.a.a.a.a.a.a.a.a.a.a.a.a.a.a.a.a.a.a.a.a.a.a.a.a.a.a.a.a.a.a.a.a.a.a.a.i.a.a.a.a.a.a.a.",
"z.z.x.x.x.x.x.x.x.z.z.z.z.x.z.x.z.x.z.z.z.x.z.z.z.x.z.x.z.z.z.x.z.z.z.x.z.z.x.x.z.x.z.z.z.x.z.z.z.x.x.z.z.z.x.x.z.z.x.x.x.x.z.z.",
"x.x.x.x.x.x.x.x.x.x.x.x.x.x.x.x.x.x.x.x.x.x.x.x.x.x.x.x.x.x.x.x.x.x.x.x.x.x.x.x.x.x.x.x.x.x.x.x.x.x.x.x.x.x.x.x.x.x.x.x.x.x.x.x."
};
