/* XPM */
static char *eb4eed8307734abd90996fac9cbe85856FRkthVgITF1J6pX[] = {
/* columns rows colors chars-per-pixel */
"64 64 14 1 ",
"  c #486FD7",
". c #4873D7",
"X c #4874D7",
"o c #4879D7",
"O c #487ED7",
"+ c #4880D7",
"@ c #4983D7",
"# c #4984D7",
"$ c #4987D7",
"% c #4989D7",
"& c #498BD7",
"* c #498DD7",
"= c #498FD7",
"- c #4991D7",
/* pixels */
"XXXXXXXXXXXXXXXXXXX..o**-*-#oXXXXXXXXXXXXXXXXXXXXXX..o%*-*-#X...",
"XXXXXXXXXXXXXXXXXXXX.o#%#*-*+XXXXXXXXXXXXXXXXXXXXXXX.o#*#***+o..",
"XXXXXXXXXXXXXXXXXXXX.XoooO%-*+X.XXXXXXXXXXXXXXXXXXXXXXooX+-**#o.",
"XXXXXXXXXXXXXXXXXXXXXX.. X#%-%o..XXXXXXXXXXXXXXXXXXX....XX+**%o.",
"XXXXXXXXXXXXXXXXXXXXXXX..XX+**o .XXXXXXXXXXXXXXXXXXXXXX..XXO-%XX",
"XXXXXXXXXXXXXXXXXXXXXXXXX. o%#OXXXXXXXXXXXXXXXXXXXXXXXXXX..o+%OX",
"XXXXXXXXXXXXXXXXXXXXXXXXXX.XXO%%o.XXXXXXXXXXXXXXXXXXXXXXXX.XXO%%",
".XXXXXXXXXXXXXXXXXXXXXXXXXX.XX*%o..XXXXXXXXXXXXXXXXXXXXXXXX.XX%-",
"..XXXXXXXXXXXXXXXXXXXXXXXXX.Xo*%X...XXXXXXXXXXXXXXXXXXXXXXX..o$=",
"ooX.XXXXXXXXXXXXXXXXXXXXXXXX.o%*+o..XXXXXXXXXXXXXXXXXXXXXXXX.o$=",
"%+X..XXXXXXXXXXXXXXXXXXXXXX..X**-#X.XXXXXXXXXXXXXXXXXXXXXXX..o%-",
"-*OoXXXXXXXXXXXXXXXXXXXXXXX..o#%*%+XXXXXXXXXXXXXXXXXXXXXXXXX..@=",
"***+X.XXXXXXXXXXXXXXXXXXXXXXXXoO**%#X.XXXXXXXXXXXXXXXXXXXXXXXXoo",
"**-%o..XXXXXXXXXXXXXXXXXXXXXX. o#--%o..XXXXXXXXXXXXXXXXXXXXXXX..",
"**-%o..XXXXXXXXXXXXXXXXXXXXXX..o%-*%o..XXXXXXXXXXXXXXXXXXXXXXXX.",
"***%+XX.XXXXXXXXXXXXXXXXXXXX...o#--%OXX.XXXXXXXXXXXXXXXXXXXXXXXX",
"*****+o.XXXXXXXXXXXXXXXXXXXXXX.o$=-%%$...XXXXXXXXXXXXXXXXXXXXXXX",
"******OXXXXXXXXXXXXXXXXXXXXXXX.o$-%=-%+.XXXXXXXXXXXXXXXXXXXXXXXX",
"****-**+XXXXXXXXXXXXXXXXXXXXXX.o%-%===%$o.XXXXXXXXXXXXXXXXXXXXXX",
"******-%o..XXXXXXXXXXXXXXXXXXX.o$===%=-$o..XXXXXXXXXXXXXXXXXXXXX",
"*******%oXX.XXXXXXXXXXXXXXXXXX.o$===-%-%X .X.XXXXXXXXXXXXXXXXXXX",
"*******%+XX.XXXXXXXXXXXXXXXXX..o$=-%%-=%+oX...XXXXXXXXXXXXXXXXXX",
"-********+X...XXXXXXXXXXXXXXX..o=-=%-%-%%$o ..XXXXXXXXXXXXXXXXXX",
"%%******-%+ooXX.XXXXXXXXXXXXXX.o@%%=%-%=-%OoooX..XXXXXXXXXXXXXXX",
"X+%*******%%%#X .XXX.XXXXXXXXXXX.O%-%-%--%=$$@o ..XXXXXXXXXXXXXX",
".X%-******-*-%OooXXX..XXXXXXXXX.Xo$--%-%%-==-%+XooX.XXXXXXXXXXXX",
".o%-**********%%*#o X.XXXXXXXXXX o=--%%--%-%==%$%$X...XXXXXXXXXX",
".o#%********-%-*-%OoooXX.XXXXXXX.X@%%=-%%-%-=%===%+ooX...XXXXXXX",
".XX+*-*-******%-**%%%#XX..XXXXXXXXXO=======%%-%-=%=$%$. ..XXXXXX",
"X. o#%%%%%*-**-%**-***+XoXXXXXXXX..o@%%$%%%--%-%%-==-%OoooX.XXXX",
"XX.XoooXoO*---*-*-*--**#%+XXXXXXXXXXXooo.+=-==-=======%$%$o .XXX",
"XXXX.....X+%#%%%%%%##**--*+XXXXXXXXXX XX..@%$$%$$$%$%%-==%+XX.XX",
"XXXXX.X..XoooooooooooO--=-%$X XXXXXXX.X..XoooooooooooO%-==%$...X",
"XXXXXXXXX............X@%$%=%+oXXXXXXXXXXXX.......... o$%%%==O.XX",
"XXXXXXXXXXX.XXXX..X...XooO%==@XXXXXXXXXXXXX..XXXXX..XXXoX+=-%$o.",
"XXXXXXXXXXXXXXXXXXXXX....X$%-%o.XXXXXXXXXXXXXXXXXXX.XXX..X@%=%o.",
"XXXXXXXXXXXXXXXXXXXXXXX..XX+=%X .XXXXXXXXXXXXXXXXXXXXXX..XXO=%XX",
"XXXXXXXXXXXXXXXXXXXXXXXXX..o$%OoXXXXXXXXXXXXXXXXXXXXXXXXX..o@$OX",
"XXXXXXXXXXXXXXXXXXXXXXXXXX..XO$@o.XXXXXXXXXXXXXXXXXXXXXXXX.XXO%%",
".XXXXXXXXXXXXXXXXXXXXXXXXX.. o%=o..XXXXXXXXXXXXXXXXXXXXXXXX.XX%-",
"..XXXXXXXXXXXXXXXXXXXXXXXXX..o%%X...XXXXXXXXXXXXXXXXXXXXXXX..o$=",
"oXX.XXXXXXXXXXXXXXXXXXXXXXXX.o=%+o..XXXXXXXXXXXXXXXXXXXXXXXX.o$=",
"=$.XXXXXXXXXXXXXXXXXXXXXXXX..o%-=$X.XXXXXXXXXXXXXXXXXXXXXXX..o%-",
"-%OXXXXXXXXXXXXXXXXXXXXXXXXX.X%%=%+XXXXXXXXXXXXXXXXXXXXXXXXX..@=",
"-%%$o...XXXXXXXXXXXXXXXXXXXXXXo+%=%$..XXXXXXXXXXXXXXXXXXXXXXXXoo",
"%==%o..XXXXXXXXXXXXXXXXXXXXXX. X$=-%o..XXXXXXXXXXXXXXXXXXXXXXX..",
"-%=$o..XXXXXXXXXXXXXXXXXXXXXXX.o$==%o..XXXXXXXXXXXXXXXXXXXXXXXX.",
"%--%OXX.XXXXXXXXXXXXXXXXXXXXXX.o$==%O.X.XXXXXXXXXXXXXXXXXXXXXXXX",
"-%-%%$...XXXXXXXXXXXXXXXXXXXXX.o$=-%%$...XXXXXXXXXXXXXXXXXXXXXXX",
"%-%--%O.XXXXXXXXXXXXXXXXXXXXXX.o$-%=-%+.XXXXXXXXXXXXXXXXXXXXXXXX",
"-%-%-=%$o..XXXXXXXXXXXXXXXXXXX.o%-%===%$o.XXXXXXXXXXXXXXXXXXXXXX",
"%-%-%==%o...XXXXXXXXXXXXXXXX...o$===%=-$o..XXXXXXXXXXXXXXXXXXXXX",
"-%%-%-=$o .XXXXXXXXXXXXXXXXXXX.o$===-%-%X .X.XXXXXXXXXXXXXXXXXXX",
"%-=%-%=%OoX..XXXXXXXXXXXXXXXXX.O$=-%%-=%+oX...XXXXXXXXXXXXXXXXXX",
"--%=%-%%%$o ..XXXXXXXXXXXXXXX..o=-=%-%-%%$o ..XXXXXXXXXXXXXXXXXX",
"$%==-%-=-%+XooX.XXXXXXXXXXXXXX.X@%%=%-%=-%OoooX..XXXXXXXXXXXXXXX",
"XO$=%-%-=%%%%$.....XXXXXXXXXXXXX.O%-%-%--%=$%@XX..XXXXXXXXXXXXXX",
".o$=-%-%%-=--%+.o.XX.XXXXXXXXXX.Xo$--%-%%-==-%O.ooX..XXXXXXXXXXX",
".o%-=%%--%-%-%%%=@...XXXXXXXXXX. o=--%%--%-%=%=$%$X....XXXXXXXXX",
".X@=%--%%-%-====-%+.oXXXXXXXXXXX.X@%%=-%%-%-%-===%+ooX...XXXXXXX",
"XXoO%-=-==%-%-%--%=$%$X..XXXXXXXXXXO======%%%-%-=%=$%@X...XXXXXX",
"XX.X%%$%$%=%-%-%%-==-%+XoXXXXXXXX..o@%%$=%%--%-%%-====OoooXXXXXX",
"XX.XXoooXO$=%-%--%-%=%%%%$o.XXXXXXXXXoooXO$=%-%-%-%==%%$%$XXXXXX",
"XXXX... .o$=-%-%%-%-%-===%o.XXXXXXXXX XX.X$=-%-%-%-%-%-==%o..XXX"
};
