/* XPM */
static char *_c26e45661b14422c64f1f96cfca547ejgLgNSCioeXMsSsc[] = {
/* columns rows colors chars-per-pixel */
"64 64 230 2 ",
"   c #000000",
".  c #060208",
"X  c #170000",
"o  c #1A0000",
"O  c #150800",
"+  c #051205",
"@  c #000015",
"#  c #04161A",
"$  c #181A16",
"%  c #280300",
"&  c #2D1107",
"*  c #162F09",
"=  c #302907",
"-  c #323103",
";  c #FF33361F",
":  c #000028",
">  c #001224",
",  c #070C32",
"<  c #371334",
"1  c #012425",
"2  c #1A2824",
"3  c #032B39",
"4  c #16323A",
"5  c #2B2E2F",
"6  c #323628",
"7  c #253639",
"8  c #2A3A3A",
"9  c #353B3A",
"0  c #440000",
"q  c #560500",
"w  c #571E1E",
"e  c #730912",
"r  c #543408",
"t  c #732800",
"y  c #6C3501",
"u  c #733B0F",
"i  c #67371D",
"p  c #43032A",
"a  c #56292A",
"s  c #453E38",
"d  c #593131",
"f  c #68372E",
"g  c #783936",
"h  c #104132",
"j  c #384536",
"k  c #544100",
"l  c #6A4201",
"z  c #634D00",
"x  c #754700",
"c  c #755108",
"v  c #48462E",
"b  c #5C462B",
"n  c #5B4936",
"m  c #6C4B2C",
"M  c #6E522B",
"N  c #684A36",
"B  c #644D3C",
"V  c #754A36",
"C  c #78543B",
"Z  c #7B6035",
"A  c #00004B",
"S  c #000456",
"D  c #053943",
"F  c #072B57",
"G  c #123158",
"H  c #273543",
"J  c #353C42",
"K  c #000766",
"L  c #001675",
"P  c #002868",
"I  c #0F3769",
"U  c #002976",
"Y  c #073574",
"T  c #00337D",
"R  c #003A7E",
"E  c #233164",
"W  c #533249",
"Q  c #613A59",
"!  c #004C59",
"~  c #2B464A",
"^  c #354643",
"/  c #3B4343",
"(  c #3D4C4C",
")  c #32524C",
"_  c #314F52",
"`  c #385458",
"'  c #3D5A5C",
"]  c #08486C",
"[  c #005563",
"{  c #005867",
"}  c #345869",
"|  c #234A74",
" . c #574547",
".. c #414D53",
"X. c #435553",
"o. c #4A5853",
"O. c #445B5B",
"+. c #565450",
"@. c #6A574A",
"#. c #70524B",
"$. c #776C49",
"%. c #6E655C",
"&. c #786658",
"*. c #415E61",
"=. c #5B5665",
"-. c #57587E",
";. c #64426A",
":. c #634E71",
">. c #416264",
",. c #4B6363",
"<. c #556161",
"1. c #796E6D",
"2. c #686C79",
"3. c #912D2E",
"4. c #863936",
"5. c #B62D2F",
"6. c #AC3A38",
"7. c #BA3536",
"8. c #C63B3B",
"9. c #8F5808",
"0. c #856100",
"q. c #8A6300",
"w. c #9E650E",
"e. c #AE6C0B",
"r. c #B16C1B",
"t. c #894E2F",
"y. c #996F38",
"u. c #A96727",
"i. c #B36B25",
"p. c #B37432",
"a. c #C5791B",
"s. c #885745",
"d. c #965746",
"f. c #925C52",
"g. c #92684A",
"h. c #986555",
"j. c #8A7758",
"k. c #987856",
"l. c #AD744E",
"z. c #AC7B56",
"x. c #956D64",
"c. c #DE9000",
"v. c #C9891C",
"b. c #DD9719",
"n. c #E19E14",
"m. c #E6A308",
"M. c #FBB40E",
"N. c #E9A51A",
"B. c #F4AC1D",
"V. c #F8AE19",
"C. c #FFB512",
"Z. c #FFB814",
"A. c #FCB31D",
"S. c #CE922E",
"D. c #E8A425",
"F. c #F7AF20",
"G. c #F9B020",
"H. c #FFBB23",
"J. c #E3A536",
"K. c #EBA934",
"L. c #B7855C",
"P. c #B68769",
"I. c #B78979",
"U. c #C98B5A",
"Y. c #C68E67",
"T. c #C99267",
"R. c #CC946C",
"E. c #D49A6A",
"W. c #CC9976",
"Q. c #D59D75",
"!. c #D59F7C",
"~. c #DBA47E",
"^. c #003982",
"/. c #004587",
"(. c #00428B",
"). c #274E84",
"_. c #0044A2",
"`. c #004AA9",
"'. c #0052AA",
"]. c #2F5FAF",
"[. c #535A83",
"{. c #65508A",
"}. c #6D738B",
"|. c #565DA0",
" X c #6B64B2",
".X c #0263CA",
"XX c #0866CC",
"oX c #136BD1",
"OX c #2B6BCE",
"+X c #3369CB",
"@X c #2D6DD4",
"#X c #006EE1",
"$X c #0072E5",
"%X c #0075EC",
"&X c #0778EE",
"*X c #1376E8",
"=X c #0079F3",
"-X c #0879F3",
";X c #FF007EFB",
":X c #187FFC",
">X c #3676E8",
",X c #3179EF",
"<X c #496ECE",
"1X c #907A8F",
"2X c #FF0080FF",
"3X c #0189FF",
"4X c #0C89FF",
"5X c #1A80FE",
"6X c #988E8F",
"7X c #9C95AD",
"8X c #9A97B6",
"9X c #D5A484",
"0X c #CFAB98",
"qX c #E9AE82",
"wX c #E7B290",
"eX c #F3BD99",
"rX c #E1B8A1",
"tX c #EAC2A9",
"yX c #F3C8AE",
"uX c #ECC8B3",
"iX c #F5CBB3",
"pX c #FDD6BC",
"aX c #B5ACC9",
"sX c #B6B1D1",
"dX c #C5B3C4",
"fX c #BFC8DF",
"gX c #F4D3C5",
"hX c #EEDCDB",
"jX c #E2DCE5",
"kX c #F2E3E7",
/* pixels */
"2X2X2X2X2X2X2X2X2X2X;X2X2X2X2X2X2X2X2X2X2X2X2X2X2X2X2X2X2X2X2X;X2X2X2X2X2X2X2X2X2X2X2X;X2X2X2X2X2X2X2X2X2X2X2X2X2X2X2X;X2X2X2X2X",
"2X2X2X;X2X2X2X2X2X;X2X2X2X2X2X2X2X2X2X;X2X2X2X2X2X2X2X;X2X2X2X2X2X2X2X2X2X2X;X2X2X2X2X2X2X2X2X2X2X2X;X2X2X2X2X2X;X2X2X2X2X2X2X2X",
"2X2X2X2X;X2X2X2X2X2X2X2X2X2X2X2X2X2X;X2X2X2X2X2X2X2X2X2X2X2X2X2X2X2X2X;X2X2X2X2X2X2X2X2X2X2X2X;X2X2X2X2X2X;X2X2X2X2X2X2X2X2X2X2X",
"2X2X2X2X2X2X2X2X2X2X2X2X2X2X2X;X2X2X2X2X2X2X2X;X2X2X2X2X2X2X2X2X2X2X2X2X2X2X2X2X2X2X;X2X2X2X2X2X2X2X2X2X2X2X2X2X2X2X2X2X2X2X;X2X",
"2X2X;X2X2X2X2X2X2X2X2X2X2X2X2X2X2X2X2X2X;X2X2X2X2X2X2X2X2X2X2X2X2X2X2X2X2X;X2X2X2X2X2X2X2X2X2X2X2X2X2X;X2X2X2X2X2X2X2X2X2X2X2X2X",
"2X;X2X2X2X2X2X2X2X2X2X2X2X2X2X;X2X2X2X2X2X2X2X2X2X;X2X2X2X2X2X2X2X2X2X2X2X2X2X2X2X2X2X2X;X2X2X2X;X2X2X2X2X2X2X2X2X2X2X2X2X2X;X2X",
"2X2X2X2X2X2X2X2X2X2X;X2X2X2X2X2X;X2X2X2X2X2X2X2X2X2X2X2X2X2X2X2X2X2X2X2X2X2X2X2X2X;X2X2X2X2X2X2X2X2X2X2X2X2X2X;X2X2X2X;X2X2X2X2X",
"2X2X2X2X2X2X2X;X2X;X2X2X2X2X2X2X2X2X2X2X2X2X2X2X2X2X2X2X2X2X2X2X2X2X2X2X2X2X2X2X2X2X2X2X2X2X2X2X2X2X2X2X2X2X2X2X;X2X2X2X2X2X2X2X",
";X2X2X2X2X2X2X2X2X2X2X2X2X2X2X2X2X2X2X2X2X2X;X2X2X2X3X3X2X3X2X3X3X3X2X3X3X3X3X2X2X2X2X2X2X2X2X2X2X2X2X2X2X2X2X2X2X2X2X2X2X2X2X2X",
"2X2X2X2X2X2X2X2X2X2X2X2X2X2X2X;X2X2X2X2X2X2X2X;X2X;X*X*X$X$X$X%X$X%X$X$X%X%X*X*X-X3X2X2X2X2X2X2X;X2X2X2X2X2X2X2X2X2X2X2X2X2X;X2X",
"2X2X2X2X2X2X;X2X2X2X2X2X2X2X2X2X2X2X2X2X2X2X3X3X3X*X].| /.(.(.(.(.(.(.(././.| ].*X2X3X3X2X2X2X2X2X2X2X2X2X2X2X;X2X2X2X;X2X2X2X2X",
"2X2X2X2X2X;X2X2X2X2X2X;X2X2X2X2X2X2X2X2X2X;X%X$X*XoX| k c q.0.0.0.0.0.0.q.c k | oX&X#X%X2X2X2X2X2X2X2X2X;X2X2X2X2X2X2X2X2X2X2X2X",
"2X2X2X2X2X2X2X2X;X2X2X2X2X2X2X2X2X2X2X2X3X=X'.I ).).[ $.S.m.m.n.n.n.N.b.m.S.$.! ).).I '.=X3X2X2X2X2X2X2X2X2X2X2X2X2X2X2X2X;X2X2X",
"2X2X2X;X2X2X2X2X2X2X2X2X2X;X2X2X2X2X2X;X=X.XF O - v ) L.K.M.Z.Z.A.Z.A.Z.Z.D.k.X.v - o F .X=X;X2X2X2X;X2X2X2X2X2X;X2X2X2X2X2X2X2X",
"2X2X2X2X;X2X2X2X2X2X2X2X;X2X2X2X2X2X3X%X'.G 7 j ) @.t.p.D.A.G.G.G.G.A.G.Z.D.p.g.@.) j 7 G '.=X3X2X2X2X2X2X;X2X2X2X2X2X2X2X2X2X2X",
"2X2X2X2X2X2X2X2X2X2X2X2X2X2X2X2X;X;X3X$XP o ; ) } 1.p.c.B.H.G.F.G.G.G.G.A.B.c.p.&.} ) ; o P $X3X2X2X2X2X2X2X2X2X2X2X2X2X;X2X2X2X",
"2X2X;X2X2X2X2X2X2X2X2X2X2X2X2X2X2X2X3X=XT X ^ >.{ j.S.M.B.G.G.G.G.F.F.G.A.B.V.S.j.{ *.( o T %X3X2X2X2X2X2X2X2X2X;X2X2X2X2X2X2X2X",
"2X;X2X2X2X2X2X2X;X2X2X2X2X2X2X2X2X;X=X.XY = o.>.[ j.K.Z.G.G.F.G.G.G.G.G.G.A.C.J.j.{ >.X.= Y .X=X2X2X2X2X2X2X2X2X2X2X2X;X2X2X2X2X",
"2X2X2X2X2X2X2X2X2X2X2X2X2X2X2X2X3X%X'.G H j O.>.[ j.J.Z.A.F.G.G.F.G.F.F.G.A.C.J.j.[ >.O.j H G '.%X2X2X2X2X2X2X2X2X2X2X2X2X2X;X2X",
"2X2X2X2X2X2X2X;X2X2X2X2X;X2X2X2X3X#XP X - ( O.*.[ j.J.Z.A.F.G.F.F.G.F.F.F.A.C.J.j.[ >.O.( - X P #X3X2X2X2X;X2X2X2X2X2X2X2X2X2X2X",
"2X2X2X2X2X2X2X2X2X2X2X2X2X2X2X2X3X$XR X 6 ..O.>.{ k.K.Z.A.G.F.A.G.G.G.F.F.A.C.J.j.[ >.O.( ; X R $X3X2X2X2X2X2X2X2X2X2X2X2X2X;X2X",
"2X2X2X2X2X2X2X;X2X2X;X2X2X2X2X2X2X$XR X 6 / X.' [ $.S.m.B.G.G.B.G.F.G.G.G.A.C.J.j.[ ' X.( 6 X R $X3X2X2X2X2X2X2X2X2X2X2X2X2X2X2X",
"2X2X;X2X2X2X2X2X2X2X2X2X2X2X2X2X3X$X^.X 6 / ..^ 3 = k e.N.H.A.H.G.G.F.G.G.A.Z.J.j.! _ / / 6 X R $X2X2X2X2X2X2X2X;X2X2X2X2X2X2X2X",
"2X;X2X2X2X2X2X2X2X2X2X2X2X2X2X2X2X$X^.o 6 j 9 5 $ . : b v.N.n.N.F.G.G.A.G.G.V.S.j.! ^ 9 / 6 X ^.$X3X2X2X2X2X2X2X2X2X2X;X2X2X2X2X",
"2X2X2X2X;X2X2X2X2X2X2X2X2X2X4X2X3X-X^.o 6 9 2 $ 5 J _ ..M x l e.N.H.A.A.A.B.b.u.@.! 9 J / 6 X ^.&X3X2X2X2X2X2X2X2X2X2X2X2X2X;X2X",
"2X2X2X2X2X2X2X2X2X2X2X;X2X2X;X:X,X+XY   9 9 . + 9 o.,.' 3 : : b v.N.D.J.B.D.v.t.n 4 9 j / 6 . U +X,X5X2X2X2X2X2X2X2X2X2X2X2X2X2X",
"2X2X2X2X2X2X2X2X2X2X2X2X2X2X2X>X X;.:   8 J   # ( O.,.,.' _ _ o.M c Z y.v.a.a.u.N D J / ( 7   : ;. X>X2X2X2X2X2X2X2X;X2X2X2X2X2X",
"2X2X2X;X2X2X2X2X2X2X2X2X2X2X2X>X:.t c B s 5 2 8 O.,.O.O.>.,.,.~ : . , J t.i.r.u.B D ^ 9 7 s B c t :.>X3X2X2X2X2X2X2X2X2X2X2X2X2X",
"2X2X2X2X2X2X;X2X2X2X;X2X2X2X3X$X^.y L.P.N > ) O.,.O.7 8 O.,.j >   . 3 D J C i.i.N D ^ 7 . N P.L.y T $X2X2X2X2X2X2X2X2X2X;X2X2X2X",
"2X2X2X2X2X;X2X2X2X;X2X2X2X2X2X#XL l E.Q.m @ ' ,.O.~   . _ ( # X r b V B  .C r.r.B D 8 7   #.Q.E.x L $X4X2X2X2X2X2X;X2X2X2X2X2X2X",
"2X2X2X2X2X2X2X2X2X2X2X2X2X2X3X#XK x E.Q.V @ ' *.3     . $ 1   r 9.r.u.u.i.r.e.e.C D , : p h.Q.E.y K $X3X2X2X2X2X2X2X2X2X2X2X2X2X",
"2X;X2X2X2X2X2X2X2X2X2X2X2X2X3X%X_.:.P.L.m > ~ X.B N  .J 2 . @ i u.i.i.i.r.p.l.h. .H +.#.g d.U.P.=.`.%X2X2X;X2X2X2X2X2X2X2X;X2X2X",
";X2X2X2X2X2X2X2X2X2X2X2X2X2X2X;X=X+X=.l i d @ v k.9X1X}...6 a f g 4.t.g m &.1X1XF s z.Y.f.i y ;.+X=X2X3X2X2X2X2X;X2X2X2X2X2X2X2X",
"2X2X2X2X2X2X2X2X2X2X2X2X2X2X2X2X4X-X`.S Q N i g.R.rXdX8X=.& s.f.f.d.d.#.O } 8XaX1.g.!.Q.f.p S `.=X4X2X2X2X2X2X2X2X2X2X;X2X2X2X2X",
"2X2X2X2X2X2X;X2X2X2X2X2X2X2X2X2X;X;X-X.XP y L.Q.E.rXjXfX>.. l.T.Y.Y.Y.z.. } fXjX0XT.~.W.9.L .X=X-X2X2X2X2X2X2X2X2X2X2X2X2X2X;X2X",
"2X2X2X2X2X;X2X2X2X;X2X2X2X2X;X2X;X2X3X&X^.y L.W.U.0XkXjX6Xh.9XeXwXwXwX!.g.6XjXjXrXU.E.z.y ^.%X2X3X2X2X2X2X;X2X2X2X2X2X2X2X2X2X2X",
"2X2X2X2X2X2X2X2X2X2X2X2X2X2X2X2X2X2X2X>X{.t i d i I.gXgXiXuXiXiXyXyXiXyXtXuXhXgX6Xt.V x t :.>X3X2X2X2X2X2X2X2X2X2X2X2X2X2X2X;X2X",
"2X2X2X;X2X2X2X2X2X2X2X2X2X2X2X2X2X2X3X>X{.y r n g x.0XeXrXyXyXiXpXpXiXyXuXtXtX9Xh.0   : ;. X>X2X2X2X2X2X2X2X2X2X2X2X2X2X2X2X2X2X",
"2X2X2X2X;X2X2X2X2X2X2X2X2X2X2X2X2X;X3X#X^.y z.R.W.P.h.&.x.I.9XeXpXpXrX9XI.x.&.@.#.a X Y @X,X:X;X2X2X2X2X2X2X;X2X;X2X2X2X2X2X2X2X",
"2X2X2X2X2X2X2X2X2X2X2X;X;X2X2X2X2X;X3X$XU x R.qXqXY.n .   i l.W.rXrX9Xl.t.0 % q 4.4.q Y #X;X;X4X2X2X2X2X2X2X2X2X2X2X2X;X2X2X2X2X",
"2X2X;X2X2X2X2X2X2X2X2X2X2X2X2X2X2X2X3X@X;.9.Y.9XqXW.1.D     o N x.x.#.N N g 3.5.8.7.g W E '.&X2X2X2X2X2X2X2X2X2X2X2X2X2X2X2X;X2X",
"2X;X2X2X2X2X2X2X2X2X;X2X2X2X2X2X2X2X2X,X|.1Xz.Y.W.P.%.` %.&.%.@.w 0 . & g t.8.8.5.6.d.u % F #X2X2X;X2X2X2X2X2X2X2X2X2X2X2X2X2X2X",
"2X2X2X2X2X2X2X2X2X2X2X;X2X2X2X2X2X2X2X:X,X<X{.9.d.s.& %.0XuXuX0X@.. a 4.6.8.8.7.e t u.w.q P $X2X2X2X2X2X;X2X2X2X2X2X;X2X2X2X2X2X",
"2X2X2X2X2X2X2X;X2X2X2X2X2X2X;X2X2X2X2X2X3X%XU   a d   &.rXpXpXrX&.. a 4.6.7.7.3.< 6 w.u.;.`.%X3X2X2X2X2X2X2X2X;X2X2X2X2X2X2X2X2X",
"2X2X2X2X2X2X2X2X2X2X2X2X2X;X2X2X2X2X2X2X2X$XP o o...  N !.eXeXW.#.    w 4.4.e a ..X.z -.+X-X=X3X2X2X2X2X2X2X2X2X2X2X2X2X;X2X2X2X",
"2X2X2X2X2X2X2X;X2X2X2X2X2X2X2X2X2X2X2X2X2X%X'.I ` ~ 1 N z.Y.Y.z.B > 1 6  . .+ 1 ) X.* (.=X3X2X2X2X2X2X2X2X2X2X2X2X;X2X2X2X2X2X2X",
"2X2X;X2X2X2X2X2X2X2X2X2X2X2X2X2X2X2X2X2X2X2X&XXX| * h j n M m @.o.*.' O.<.o.2 + 2 * O ] %X3X2X2X2X2X2X2X2X2X2X2X2X2X2X2X2X2X2X2X",
"2X;X2X2X2X2X2X2X;X2X2X2X2X2X2X2X2X2X2X2X2X2X3X%XU = 2.}.}.`     ^ o.X.X.( O.2.2.2.<.& U $X3X2X2X2X2X2X2X2X;X2X2X2X2X2X2X2X;X2X2X",
"2X2X2X2X;X2X2X2X2X2X2X2X2X2X2X2X2X2X2X2X2X2X3X#XS r 7XsXsX7Xv     & & O . +.7XaXsX7Xr S $X2X2X2X2X2X2X2X2X2X2X2X2X2X2X2X2X2X2X2X",
"2X2X2X2X2X2X2X2X2X2X2X2X2X;X2X2X2X2X2X2X2X2X3X%X_.[.7XaXaX7X|.U R R R T L [.8XaXaX7X-._.%X3X2X2X2X2X2X2X;X2X2X2X2X2X2X2X;X2X2X2X",
"2X2X2X2X2X2X2X2X2X2X2X2X;X2X2X2X2X2X2X2X2X2X2X;X=XOX-.z z [.OX%X$X$X$X$X%X@X-.z z -.OX=X;X2X2X2X2X2X2X2X2X2X2X2X2X2X2X2X2X;X2X2X",
"2X2X2X;X2X2X2X2X2X;X2X2X2X2X2X2X;X2X2X2X2X2X2X2X4X=X_.A A _.=X4X3X3X2X3X4X=X_.A A _.=X4X2X;X2X2X2X2X2X;X2X2X2X2X;X2X2X2X2X2X2X2X",
"2X2X2X2X2X2X;X2X2X2X;X2X2X2X2X2X2X2X2X2X2X2X2X2X2X=X%X#X#X%X;X2X2X2X2X2X3X;X%X#X#X%X;X;X2X2X2X2X2X2X2X2X2X2X;X2X2X2X2X;X2X2X2X2X",
"2X2X2X2X2X;X2X2X2X2X2X2X2X2X2X2X;X2X2X2X2X2X2X2X2X3X2X3X2X3X2X2X;X2X2X2X2X2X2X3X3X3X2X;X2X2X;X2X2X2X2X2X2X;X2X2X2X2X2X2X2X2X2X2X",
"2X2X2X2X2X2X2X2X2X2X2X2X2X2X2X2X2X2X2X2X2X;X2X2X2X;X2X2X2X2X2X2X2X2X2X2X2X2X2X2X2X2X2X2X2X2X2X;X2X2X2X2X2X2X2X2X2X2X2X2X2X2X2X;X",
"2X;X2X2X2X2X2X2X2X2X2X2X2X2X2X;X2X2X2X2X2X2X;X2X2X2X2X2X2X2X2X2X2X2X2X2X2X2X2X2X2X2X2X2X2X2X2X2X2X;X2X2X2X2X2X2X2X2X2X2X2X2X2X2X",
"2X2X2X2X2X2X;X2X2X2X;X2X2X2X2X2X2X2X2X2X2X2X2X2X2X2X2X2X2X2X2X;X2X2X2X2X2X2X2X2X2X2X2X2X2X2X2X2X2X2X2X2X2X2X2X;X2X;X2X2X2X2X2X2X",
"2X2X2X2X2X2X2X2X2X;X2X2X2X2X2X2X;X2X2X2X2X2X2X2X2X2X2X2X2X2X2X2X2X2X;X2X2X2X2X2X;X2X2X2X2X2X2X2X2X2X2X2X2X2X2X2X2X2X;X2X2X2X2X2X",
"2X2X;X2X2X2X2X2X2X2X2X2X2X2X2X2X2X2X2X2X2X2X2X2X2X;X2X2X2X2X2X2X2X2X2X2X2X2X2X;X2X2X2X2X2X2X2X2X2X;X2X2X2X2X2X2X2X2X2X2X2X2X2X;X",
"2X;X2X2X2X2X2X2X2X2X2X2X2X2X2X;X2X2X2X2X;X2X2X2X2X2X;X2X2X2X2X2X2X2X2X2X2X2X2X2X2X2X2X2X;X2X2X2X2X2X;X2X2X2X2X2X2X2X2X2X2X2X2X2X",
"2X2X2X2X;X2X2X2X2X2X2X2X2X2X2X2X2X2X2X2X2X2X2X;X2X2X2X2X2X2X2X2X2X2X2X2X2X2X2X;X2X2X2X2X2X2X2X;X2X2X2X2X2X2X2X2X2X2X2X2X2X2X2X;X",
"2X2X2X2X2X2X2X2X2X2X2X2X2X2X2X;X2X2X;X2X2X2X2X2X2X2X2X2X;X2X2X2X2X2X2X2X2X2X2X2X2X2X;X2X2X2X2X2X2X2X2X2X;X2X2X2X2X2X2X2X2X2X2X2X",
"2X2X2X2X2X2X2X2X2X2X;X2X2X2X2X2X2X2X2X;X2X2X2X2X2X2X2X;X2X2X2X2X2X;X2X2X2X2X2X2X2X2X2X;X2X2X2X2X2X2X2X;X2X2X2X2X2X;X2X2X2X2X2X2X",
"2X2X2X;X2X2X2X2X2X;X2X2X2X2X2X2X2X2X2X2X2X2X2X2X2X2X2X2X2X2X2X2X2X2X;X2X2X2X2X2X2X2X2X2X2X2X2X2X2X2X2X2X2X2X2X2X2X2X;X2X2X2X2X2X"
};
