/* XPM */
static char *a341c8c5a5904db9eb9ebd3df31eca1fvZMSmlFlROOKyxyB[] = {
/* columns rows colors chars-per-pixel */
"64 64 218 2 ",
"   c #0C1047",
".  c #242B56",
"X  c #312C51",
"o  c #353557",
"O  c #3B3B5B",
"+  c #353D62",
"@  c #393E68",
"#  c #2E3E7C",
"$  c #423954",
"%  c #3B4264",
"&  c #3B4269",
"*  c #374479",
"=  c #534E5D",
"-  c #424564",
";  c #424867",
":  c #4B4964",
">  c #444969",
",  c #4B4D6A",
"<  c #514F68",
"1  c #4D516C",
"2  c #53536D",
"3  c #585769",
"4  c #4E5575",
"5  c #545975",
"6  c #5A5971",
"7  c #5E626F",
"8  c #5B6078",
"9  c #5E627C",
"0  c #65636E",
"q  c #636274",
"w  c #6B6A75",
"e  c #62657C",
"r  c #65697D",
"t  c #6C6D7A",
"y  c #716F79",
"u  c #74737A",
"i  c #73737C",
"p  c #002EA1",
"a  c #0032A2",
"s  c #003FA6",
"d  c #395092",
"f  c #0043A7",
"g  c #004BAA",
"h  c #0749A9",
"j  c #174FAB",
"k  c #1750AC",
"l  c #1C53AD",
"z  c #1752B1",
"x  c #2C55A6",
"c  c #295BA6",
"v  c #2455AD",
"b  c #2C57AC",
"n  c #2E59AD",
"m  c #3659A4",
"M  c #3D5DA5",
"N  c #315CAF",
"B  c #2857B1",
"V  c #265AB4",
"C  c #2D5CB2",
"Z  c #335EB1",
"A  c #1D62AF",
"S  c #1A66B1",
"D  c #3B63AD",
"F  c #2867B2",
"G  c #3561B2",
"H  c #3966B2",
"J  c #3B6CB4",
"K  c #3762B8",
"L  c #3964BC",
"P  c #376BB8",
"I  c #396DB9",
"U  c #3E71B6",
"Y  c #3B74BA",
"T  c #435890",
"R  c #5B668B",
"E  c #4C619C",
"W  c #52679E",
"Q  c #646C83",
"!  c #686B83",
"~  c #696D8A",
"^  c #696E8B",
"/  c #6C738A",
"(  c #757585",
")  c #777984",
"_  c #7B7B83",
"`  c #7B7D8B",
"'  c #6A7799",
"]  c #757C91",
"[  c #737B98",
"{  c #4462A6",
"}  c #4664AA",
"|  c #436BA8",
" . c #4B6FAB",
".. c #5068A2",
"X. c #4D74AC",
"o. c #4367B3",
"O. c #496DB6",
"+. c #4175B7",
"@. c #4C73B7",
"#. c #4276B9",
"$. c #4379BA",
"%. c #5572B6",
"&. c #5878B6",
"*. c #5576B9",
"=. c #5D7ABB",
"-. c #6177AB",
";. c #657FB3",
":. c #617DBC",
">. c #687FBC",
",. c #3B66C0",
"<. c #3F6AC7",
"1. c #436ECE",
"2. c #447BC4",
"3. c #4472CF",
"4. c #456ED2",
"5. c #486FD7",
"6. c #4671D3",
"7. c #4874D7",
"8. c #4778D0",
"9. c #487AD7",
"0. c #4975DA",
"q. c #497ADA",
"w. c #807E8D",
"e. c #7F828B",
"r. c #7B8494",
"t. c #798598",
"y. c #7C8CA5",
"u. c #6384BD",
"i. c #6981BE",
"p. c #748BB4",
"a. c #4681C5",
"s. c #4584CD",
"d. c #4683D1",
"f. c #4985D6",
"g. c #4789D0",
"h. c #498BD6",
"j. c #4984D9",
"k. c #4A8CDA",
"l. c #4991D7",
"z. c #4B91DB",
"x. c #7389C2",
"c. c #7A8EC5",
"v. c #7494C6",
"b. c #7898C9",
"n. c #82838E",
"m. c #838597",
"M. c #848994",
"N. c #8B8D94",
"B. c #838C9D",
"V. c #86919E",
"C. c #8D929C",
"Z. c #939599",
"A. c #95969D",
"S. c #848BA2",
"D. c #8692A3",
"F. c #8C95A5",
"G. c #8E9CAD",
"H. c #949EAD",
"J. c #989BA8",
"K. c #8799B5",
"L. c #94A1AF",
"P. c #9BA2AC",
"I. c #8FA1B9",
"U. c #95A3B3",
"Y. c #9AA5B5",
"T. c #99A7B7",
"R. c #9DACBC",
"E. c #A2A5AF",
"W. c #A3ACB5",
"Q. c #A2AEBE",
"!. c #A7B1BD",
"~. c #8699C5",
"^. c #879CC9",
"/. c #97A8C7",
"(. c #99AAD1",
"). c #A2ADC0",
"_. c #A5B4C3",
"`. c #A9B5C4",
"'. c #A5B6CB",
"]. c #ACBBCB",
"[. c #B0BECA",
"{. c #A7B8D4",
"}. c #AABAD4",
"|. c #A6BCE0",
" X c #B3C2D3",
".X c #B4C1D2",
"XX c #BAC6D5",
"oX c #B6C4D8",
"OX c #BCC4DD",
"+X c #BCCBDC",
"@X c #B9CCE5",
"#X c #C8C7CE",
"$X c #C1C4D8",
"%X c #C2CDDE",
"&X c #CCCEDD",
"*X c #D3CFD3",
"=X c #C9D1DF",
"-X c #D2D3DD",
";X c #C2CCE3",
":X c #C4D3E4",
">X c #CBD5E2",
",X c #C7D5EA",
"<X c #C8D7E9",
"1X c #CBDAEB",
"2X c #D5DAE5",
"3X c #CCDBF1",
"4X c #D0DFF1",
"5X c #D8DEF1",
"6X c #D4E3F5",
"7X c #DDE3F2",
"8X c #E5E5EC",
"9X c #E9E6E9",
"0X c #E9E7EB",
"qX c #E3E6F4",
"wX c #E5EBF7",
"eX c #E9ECFA",
"rX c #F0F2F7",
"tX c #F3F5F9",
/* pixels */
"7.7.7.7.7.7.7.7.0.0.0.0.q.4.G N n N Z N n Z J $.#.+.#.J G b N N N N N N N N N N N N N n b K 1.0.0.0.0.0.7.q.f.l.k.l.l.f.9.6.7.0.",
"7.7.7.7.7.0.7.7.6.3.1.6.6.1.Z N N N N N N G J +.+.+.#.+.H N N N N N N N N N N N N N N N N G 1.6.6.1.1.6.6.q.j.h.f.h.k.h.9.q.0.6.",
"7.7.7.0.0.0.0.6.L G K G K Z Z N N N N N N N N G G D +.#.+.J G C N N N N N N N N N N Z N N Z G K K G G ,.4.q.q.q.q.9.h.l.h.j.q.6.",
"7.7.7.7.6.1.6.1.Z b b N N n N Z N N N Z N N N N n N J +.#.+.G n N N N N N N N N N N N N N N N n N b b Z 1.6.1.6.5.7.f.h.h.h.q.7.",
"7.0.0.6.,.K G G N N N N N N N N N N N n N N N N n N Z H +.#.G x N N N N N N N N N N N N N N N n N N N N G K G ,.6.0.q.9.k.h.q.5.",
"7.7.6.<.G b N b N N N N N N N N N N N Z N N N N N N n Z J J H G N N N N N N N N N N N N N N N N N N N N N N x N 1.6.6.q.f.f.9.9.",
"0.6.L G N N n N N N N N N N N N N N N N N N N N N N N N G H J J G N N Z N N N N N N N N N N Z N N N N N N N b N Z ,.4.0.q.9.f.h.",
"0.3.G b N N N N N N N N N N N N N N N Z n Z N Z N N N N n G U #.G n N N N N N N N N N N N Z n Z N N N N N N N N b Z 1.0.5.0.h.l.",
"0.4.K x N N N N N N N N N N N N Z N N N N N Z n N N N N n G U U G N N N N N N N Z N N N N N N N N N N N N N Z n N G 4.0.7.0.h.k.",
"7.1.G N n N N N N N N N N N N N N N N N N N N N N N N N N G +.#.H N N N N N N N n Z N N N N N N N N N N N N N N N G 1.6.7.q.h.h.",
"$.#.G n N N N N N N N N N N N N N N N N N N N N N N N N n G U #.U J N n N N N N N N N N N N Z n N Z N N N Z N N N N Z ,.4.q.h.l.",
"#.J H N N N N N N N N N N N N N N N N N N N N N N N N N N N J +.#.#.H Z N N N N N N N N N N N Z Z n Z n Z n N N Z N x Z 1.q.j.h.",
"#.U U J G N N N Z N N N N N N N Z n Z N N N Z N N N N N N N N H U #.U U G b N N Z N N N Z n N N N N N N N N N N N N Z Z 1.q.q.9.",
"#.#.#.U G n N N N N N N N N N Z N N N N N N N N N N N N N N n Z U #.$.U G n Z N N N N N N Z N N N N N N N N N N N N n L 4.0.7.6.",
"+.+.#.U G n n N N N N N N N N N N N N N N N N N N N N N Z C l V P Y Y I F b n N N N N N N N N N N N N N N N Z N Z n n Z 6.0.7.7.",
"#.+.#.+.H Z Z N N N N N N N N N N N N N N N N N N N N Z n N }  .X.X.X.X.{ M N Z n Z N N N N N N Z N N N N N N N N N Z Z 1.6.7.7.",
"+.+.#.+.U J N b N N N N N N N N N N N N N N N N N Z C B j H p.y./ r e ! e R M V C n N N N N N N N N N N N N N N N N n Z Z ,.6.0.",
"+.+.+.+.#.+.J N N N N N N N N N N Z N N N N N Z C Z m m M ;.T.W.J.N.N.N.Z.B...x N Z N N N N N N N N N N N N N N N N Z n b Z 1.0.",
"#.+.+.+.+.+.+.J N N N N N N N N N N N N N N N Z F n * 4 ' I.[.;XXXXXXXXX%X`.^ # x F Z N N N G N N N N N N N N N Z N N N N K 4.0.",
"+.+.#.+.+.+.#.+.G n N N N N N N N N N N n n C n c E / M.U.].<X4X1X4X1X4X6X%XF.5 E m N n N N N N N N N N N N N Z N N N n N G 4.0.",
"+.+.#.+.+.+.#.J N n N N N N N N N N N C l k z x * ! _.+X+X+X<X1X<X<X<X1X4X:X`.D.R d m n n G n N N N N N N N N N N N N N b G 6.0.",
"#.+.+.+.#.+.+.+.J N N N N N N N n C n G %.%.O...5 r.+X6X4X1X<X<X<X<X<X<X:X+X XR.i 2 m C C G C N Z N N N N N N N N N N N N G 4.0.",
"#.+.+.+.+.+.+.+.+.J N n N N N n j g g @.K.T.K.S.r.G.+X4X1X1X<X<X<X<X1X:X X].].T.n.5 M V n n N N N N N N N N N N N N N N N L 4.0.",
"U U +.+.#.+.+.#.#.U J G G N v H =.=.D -.)..XT.U.T. X+X1X<X<X<X1X<X<X:X+X[.]..X`.Z.( E b N n N N N N N N N N N N N N N N x G 3.0.",
"N D U #.+.+.#.+.+.+.+.+.#.H f O.|. X[ ( R.`.L.T..X:X<X<X<X<X1X4X1X:X.X.XXX+X<XXXT.t.R T c z n n N N N N N N N N N N N N m K 3.0.",
"N N U #.+.+.+.+.+.#.+.+.U $.=.~.oX.XA.N.Q._.U._.+X4X1X<X1X<X+X+X:X+X.X X+X6X6X+X].D.0 8 p.v.#.C G G N N N N N N N N N N N K 3.0.",
"b G +.#.+.#.#.+.#.+.+.U F v.:X&XF.] L.!.`.`./.].:X4X4X4X1X:X X_..X.XXX:X<X1X1X+XoXU.6 ` 2X1Xv.S J J N b N N N N N N N N N K 1.0.",
"N G J +.+.+.+.+.+.+.U U S b.qX8X_ 2 T. X].`.].[.+X+XXXXX+XXX X X`..X:X1X<X<X4X<X[.G.5 ) *X2Xv.F U U H G D N N N N N N N N G 3.0.",
"N N N J +.+.+.+.#.+.+.U F v.3X:Xn.t U.].`.].].'._.T.C.C.L._.+X>X:X+X:X1X<X1X6X+XP.i 1 1 e.y.&.Y U U U U +.J G b b N N N N K 6.0.",
"N N N N J U J +.U U U U Y u.'._.C.C._. X]._._.R.G.r.y u y._.+X4X1X1X1X1X<X<X+X`.e.3 > % o & | Y $.#.+.$.#.+.J N G G N N x G 4.0.",
"N N N N N G G G G H U $.Y X.R e.H.].+X%X].R.T.D.r._ u e.T. X+X1X1X1X1X1X6X+XW.e.7 - % % $ > | a.$.+.$.+.#.+.+.+.+.J G b N K 1.0.",
"N N N N N N N b b G J U Y U Q e.T. X<X,XXX].Q.U.r.u y n.L.[.XX<X1X:X:X:X+X_.e.= % + % 4 ( t.X.J U U U U J J +.+.#.+.D N N K 3.0.",
"N N N N N N N N N N G Z k :.}.OXT.R.:X1X:X%X:X XR.t.r 0 ) F._.XX:X:XXX!.L.e.7 % - @ . ^ ].oX:.l Z G G G Z H +.#.#.#.+.H N Z 4.0.",
"N N N N N N N N N N N v j =.}.[.T.R.+X1X1X1X4X:XR.r.8 < 0 e.L. X:X:X XU.e.= % % - @ o / ].}.:.h v N N N n Z J +.J +.+.+.H G 6.0.",
"N N N N N N N N N N N n B M R ` T. X:X3X1X6X6X+XV.2 & 1 w e.D._.:X1X+XU.r + % % @ - < 6 ! ^ M C N N N N N N Z G N J +.+.J 2.3.0.",
"N N N N Z N N N N N N Z V { ^ N.T.].XX:X+X+X+XQ.! o O , w e.D.R.+X+X XG.8 + % & > , 2 e ( ' { V N N N N N N N n N N J +.+.$.6.7.",
"N Z N N N Z N N N N N n g >.$X-X`.T.R._._.T.B.! 4 % % 1 w n.F.R.]. X_.D.8 + % % , 2 - w.#X&Xi.g v N N Z N N N N N Z Z H +.$.6.5.",
"N N N N N N N N N N Z v f c.wXrX!.r.t.t.V.r.6 O % % % 1 w e.V.L.R.R.L.r.5 % & & 2 2 O w.9XeXc.f v N N N N N N N Z n n Z J +.8.0.",
"N N N N N N N N N N N v f c.qXrXJ.7 r Q r e 6 1 % & % 1 t _ _ M.U.U.V.i 1 % 1 7 6 < X w.0XeXc.f n N N N N N N N n Z n N N I s.h.",
"N N N N N N N N N N Z n h >.;X-XE.) 3 : : < 6 2 > & % 1 u i u _ V.V.) 0 1 > 1 2 < 2 ! H.&X;X>.g n N N N N N N N N N Z Z x L d.z.",
"n n N N N N N N N N N N v o.=.^. X`.e X < 6 6 2 > % @ 1 t _ i e.e.) 9 3 2 2 > - o e Q.[.^.=.o.v N N N N N N N N N N N N b J s.k.",
"G Z N N N N N N N N N N Z v a *.@X2XE.i 6 : 2 , > ; % 1 i i i u i w 7 6 6 1 % , q H.4X,X=.p l Z N Z N N N N N Z N N N N b K d.z.",
"+.J Z n n N N N N N N N N v f :.@X7X8X X5   + > 2 , % 1 t _ i u q q t t 2 % X e I.>XtX5Xx.s b N N N N N N N N N N N N n x P s.z.",
"#.+.H Z Z N N Z N N N N N b j =.(.<XtXqXE.e , @ 2 < % : t _ e.y 2 2 i t ; & e P.>XwXqX;X>.h v N N N N N N N N N N N N N n L d.k.",
"+.+.+.K Z N N N N N N Z N N C Z O.^.<XeXwX#X!   O O . - w w._ y < : 0 3   5 /.2XtXqX(.%.o.B N N N N N N N N N N N N N N b K 3.j.",
"+.#.#.+.G n N N N N N N N N Z b s o.(.;X5X2XE.w.m.m./ ^ i y y ( ( M.J.Z.n.D.}.,X5X;X%.a l Z N N N N N N N N N N N N N n b K 1.0.",
"+.+.+.+.Z n N N N N N N N N N b B Z %.>.:./.-X9X9X2X>X_._ = < _ `.>X2X9X9X&X^.=.x.>.o.v n Z N N N N N N N N N N N N Z N b Z 6.0.",
"+.+.+.+.H Z Z n N N N N N N N N Z C j s p =.;XeXqX5X,X{.' @ @ ' {.,X7XwXeX;X=.p s f v Z N N N N N N Z N N N N N N N Z Z Z L 1.6.",
"+.+.+.+.+.J N n N N N N N N N N N N n b l H i.c.c.x.i.=.{ m x | u.b.b.b.^.p.o.l v n N N N N N N N N N N N N N N N N b G 1.1.L K ",
"+.#.+.#.+.+.D Z N N N N N N N N N N N N G b g f f g g k V G n C F F S S S A G G N N N N N N N N N N N N N N N N N N N K 6.6.K x ",
"+.+.+.+.+.#.+.J G N N N N N N N N N N N N N b v B b b n n G n G U U U Y Y Y U J G N N N N N N N N N N N N N N N N N x K 6.6.K b ",
"+.+.+.+.+.+.#.+.G n N N N N N N N N N N N N Z N N N N N N C n G U $.#.#.Y U #.U G N N N N N N N Z N N N N N N N N N n K 6.6.G N ",
"+.+.+.+.#.+.#.+.Z n N N N N N N N N N N N N N N N N N N N N n H U $.+.+.+.+.#.U G b n Z N N N N N N N N N N N N N N N Z 6.6.K b ",
"$.#.#.+.+.+.#.J H N N N N N N N N N N N N N N N N N N N N N n G U U +.+.+.+.+.U D G Z n N N N N N N N N Z N N N N Z Z L 6.6.G N ",
"g.s.$.+.+.+.+.+.#.J N n N N N N N N N N N N N N N N N N N N n G U $.$.+.+.#.#.#.U J G n b N N N N N N N N N N N N Z 1.6.0.3.K N ",
"k.f.$.#.+.+.+.#.#.+.J N G Z N N N N N N N N N N N N N N N N n H J U +.+.+.#.U #.#.U H G G G N N N N N N N N N N N Z 6.q.0.4.Z N ",
"9.8.#.+.+.+.+.#.#.+.J +.+.J N b b N N N N N N N N N N N N N N N D H U +.+.#.+.+.+.+.U J +.J G b n N N N n Z Z Z x Z 4.q.0.6.G N ",
"7.3.2.#.#.+.#.#.+.+.+.#.#.U D G G H N N N N N N N N N N N N N N c N U #.+.+.+.+.+.+.#.#.#.U D G G G N N n N N Z Z ,.4.0.0.4.G b ",
"7.9.f.s.#.U U +.+.+.+.+.#.+.+.U U J G b b N N N N N N N N N N N n H U #.+.#.#.+.+.#.#.+.+.+.+.U +.J G x n b x Z 1.7.7.0.0.1.K N ",
"6.0.h.g.a.#.$.$.#.+.+.+.+.#.#.#.#.U D G H N N N N N N N N N N N N G J U +.+.+.+.+.+.+.+.+.+.+.+.#.U H G K K Z L 6.0.7.7.0.4.G N ",
"0.0.0.9.f.g.g.s.#.U +.#.+.+.#.#.+.+.U U U J N N n N N N N N N N N G G D U #.#.#.#.#.#.+.#.#.#.#.+.+.J +.a.s.6.4.6.0.7.7.q.1.K N ",
"0.6.6.9.f.k.z.f.2.#.$.#.#.#.#.U +.+.#.#.#.U D G G G N N N N N N N n b G J U U U U U +.+.+.#.#.$.$.$.#.a.h.z.j.q.q.9.7.0.0.6.Z N ",
"7.7.7.0.q.q.q.0.6.8.f.g.g.s.#.U +.+.#.+.#.#.+.J +.J G N N N N N N N N N G H H G G H U #.+.#.s.g.f.g.g.g.h.h.h.h.h.j.7.6.0.1.K N ",
"7.7.7.7.7.7.6.7.7.9.k.l.k.h.$.+.+.+.+.+.+.#.+.#.#.+.G b N N N N N N N N b b N b x G J #.#.$.h.z.k.l.l.k.k.k.k.k.l.f.q.0.0.4.Z N "
};
